  0
SECTION
  2
HEADER
  9
$ACADVER
  1
AC1009
  9
$EXTMIN
 10
0.0
 20
0.0
 30
0.0
  9
$EXTMAX
 10
1000.0
 20
1000.0
 30
0.0
  9
$FILLMODE
 70
 0
  9
$SPLFRAME
 70
 1
  0
ENDSEC
  0
SECTION
  2
TABLES
  0
TABLE
  2
LAYER
 70
1
  0
LAYER
  2
0
 70
     0
 62
     7
  6
CONTINUOUS
  0
ENDTAB
  0
ENDSEC
  0
SECTION
  2
ENTITIES
  0
LINE
  8
0
 62
     231
 10
0.132292
 20
53.049
 30
0.0
 11
53.049
 21
53.049
 31
0.0
  0
LINE
  8
0
 62
     231
 10
53.049
 20
53.049
 30
0.0
 11
53.049
 21
0.132292
 31
0.0
  0
LINE
  8
0
 62
     231
 10
53.049
 20
0.132292
 30
0.0
 11
0.132292
 21
0.132292
 31
0.0
  0
LINE
  8
0
 62
     231
 10
0.132292
 20
0.132292
 30
0.0
 11
0.132292
 21
53.049
 31
0.0
  0
LINE
  8
0
 62
     9
 10
14.0229
 20
12.9205
 30
0.0
 11
14.7505
 21
12.9205
 31
0.0
  0
LINE
  8
0
 62
     9
 10
14.7505
 20
12.9205
 30
0.0
 11
15.2962
 21
10.3132
 31
0.0
  0
LINE
  8
0
 62
     9
 10
15.2962
 20
10.3132
 30
0.0
 11
15.9411
 21
12.9205
 31
0.0
  0
LINE
  8
0
 62
     9
 10
15.9411
 20
12.9205
 30
0.0
 11
16.779
 21
12.9205
 31
0.0
  0
LINE
  8
0
 62
     9
 10
16.779
 20
12.9205
 30
0.0
 11
17.4239
 21
10.2691
 31
0.0
  0
LINE
  8
0
 62
     9
 10
17.4239
 20
10.2691
 30
0.0
 11
17.9696
 21
12.9205
 31
0.0
  0
LINE
  8
0
 62
     9
 10
17.9696
 20
12.9205
 30
0.0
 11
18.6972
 21
12.9205
 31
0.0
  0
LINE
  8
0
 62
     9
 10
18.6972
 20
12.9205
 30
0.0
 11
17.8484
 21
9.39271
 31
0.0
  0
LINE
  8
0
 62
     9
 10
17.8484
 20
9.39271
 30
0.0
 11
17.0987
 21
9.39271
 31
0.0
  0
LINE
  8
0
 62
     9
 10
17.0987
 20
9.39271
 30
0.0
 11
16.3601
 21
12.1102
 31
0.0
  0
LINE
  8
0
 62
     9
 10
16.3601
 20
12.1102
 30
0.0
 11
15.6215
 21
9.39271
 31
0.0
  0
LINE
  8
0
 62
     9
 10
15.6215
 20
9.39271
 30
0.0
 11
14.8718
 21
9.39271
 31
0.0
  0
LINE
  8
0
 62
     9
 10
14.8718
 20
9.39271
 30
0.0
 11
14.0229
 21
12.9205
 31
0.0
  0
LINE
  8
0
 62
     231
 10
13.626
 20
12.8654
 30
0.0
 11
14.1993
 21
12.8654
 31
0.0
  0
LINE
  8
0
 62
     231
 10
14.1993
 20
12.8654
 30
0.0
 11
14.9104
 21
10.1534
 31
0.0
  0
LINE
  8
0
 62
     231
 10
14.9104
 20
10.1534
 30
0.0
 11
15.6215
 21
12.8654
 31
0.0
  0
LINE
  8
0
 62
     231
 10
15.6215
 20
12.8654
 30
0.0
 11
16.2939
 21
12.8654
 31
0.0
  0
LINE
  8
0
 62
     231
 10
16.2939
 20
12.8654
 30
0.0
 11
17.0105
 21
10.1534
 31
0.0
  0
LINE
  8
0
 62
     231
 10
17.0105
 20
10.1534
 30
0.0
 11
17.7161
 21
12.8654
 31
0.0
  0
LINE
  8
0
 62
     231
 10
17.7161
 20
12.8654
 30
0.0
 11
18.2893
 21
12.8654
 31
0.0
  0
LINE
  8
0
 62
     231
 10
18.2893
 20
12.8654
 30
0.0
 11
17.3798
 21
9.39271
 31
0.0
  0
LINE
  8
0
 62
     231
 10
17.3798
 20
9.39271
 30
0.0
 11
16.7073
 21
9.39271
 31
0.0
  0
LINE
  8
0
 62
     231
 10
16.7073
 20
9.39271
 30
0.0
 11
15.9577
 21
12.237
 31
0.0
  0
LINE
  8
0
 62
     231
 10
15.9577
 20
12.237
 30
0.0
 11
15.208
 21
9.39271
 31
0.0
  0
LINE
  8
0
 62
     231
 10
15.208
 20
9.39271
 30
0.0
 11
14.5355
 21
9.39271
 31
0.0
  0
LINE
  8
0
 62
     231
 10
14.5355
 20
9.39271
 30
0.0
 11
13.626
 21
12.8654
 31
0.0
  0
LINE
  8
0
 62
     9
 10
19.2636
 20
12.9205
 30
0.0
 11
19.9692
 21
12.9205
 31
0.0
  0
LINE
  8
0
 62
     9
 10
19.9692
 20
12.9205
 30
0.0
 11
19.9692
 21
9.39271
 31
0.0
  0
LINE
  8
0
 62
     9
 10
19.9692
 20
9.39271
 30
0.0
 11
19.2636
 21
9.39271
 31
0.0
  0
LINE
  8
0
 62
     9
 10
19.2636
 20
9.39271
 30
0.0
 11
19.2636
 21
12.9205
 31
0.0
  0
LINE
  8
0
 62
     9
 10
19.2636
 20
14.3316
 30
0.0
 11
19.9692
 21
14.3316
 31
0.0
  0
LINE
  8
0
 62
     9
 10
19.9692
 20
14.3316
 30
0.0
 11
19.9692
 21
13.626
 31
0.0
  0
LINE
  8
0
 62
     9
 10
19.9692
 20
13.626
 30
0.0
 11
19.2636
 21
13.626
 31
0.0
  0
LINE
  8
0
 62
     9
 10
19.2636
 20
13.626
 30
0.0
 11
19.2636
 21
14.3316
 31
0.0
  0
LINE
  8
0
 62
     231
 10
19.1589
 20
12.8654
 30
0.0
 11
19.7266
 21
12.8654
 31
0.0
  0
LINE
  8
0
 62
     231
 10
19.7266
 20
12.8654
 30
0.0
 11
19.7266
 21
9.39271
 31
0.0
  0
LINE
  8
0
 62
     231
 10
19.7266
 20
9.39271
 30
0.0
 11
19.1589
 21
9.39271
 31
0.0
  0
LINE
  8
0
 62
     231
 10
19.1589
 20
9.39271
 30
0.0
 11
19.1589
 21
12.8654
 31
0.0
  0
LINE
  8
0
 62
     231
 10
19.1589
 20
14.2159
 30
0.0
 11
19.7266
 21
14.2159
 31
0.0
  0
LINE
  8
0
 62
     231
 10
19.7266
 20
14.2159
 30
0.0
 11
19.7266
 21
13.4938
 31
0.0
  0
LINE
  8
0
 62
     231
 10
19.7266
 20
13.4938
 30
0.0
 11
19.1589
 21
13.4938
 31
0.0
  0
LINE
  8
0
 62
     231
 10
19.1589
 20
13.4938
 30
0.0
 11
19.1589
 21
14.2159
 31
0.0
  0
LINE
  8
0
 62
     9
 10
21.0247
 20
14.3316
 30
0.0
 11
21.7303
 21
14.3316
 31
0.0
  0
LINE
  8
0
 62
     9
 10
21.7303
 20
14.3316
 30
0.0
 11
21.7303
 21
9.39271
 31
0.0
  0
LINE
  8
0
 62
     9
 10
21.7303
 20
9.39271
 30
0.0
 11
21.0247
 21
9.39271
 31
0.0
  0
LINE
  8
0
 62
     9
 10
21.0247
 20
9.39271
 30
0.0
 11
21.0247
 21
14.3316
 31
0.0
  0
LINE
  8
0
 62
     231
 10
20.92
 20
14.2159
 30
0.0
 11
21.4878
 21
14.2159
 31
0.0
  0
LINE
  8
0
 62
     231
 10
21.4878
 20
14.2159
 30
0.0
 11
21.4878
 21
9.39271
 31
0.0
  0
LINE
  8
0
 62
     231
 10
21.4878
 20
9.39271
 30
0.0
 11
20.92
 21
9.39271
 31
0.0
  0
LINE
  8
0
 62
     231
 10
20.92
 20
9.39271
 30
0.0
 11
20.92
 21
14.2159
 31
0.0
  0
LINE
  8
0
 62
     9
 10
24.9025
 20
12.5677
 30
0.0
 11
24.9025
 21
11.8622
 31
0.0
  0
LINE
  8
0
 62
     9
 10
24.9025
 20
11.8622
 30
0.0
 11
24.864
 21
11.8925
 31
0.0
  0
LINE
  8
0
 62
     9
 10
24.864
 20
11.8925
 30
0.0
 11
24.474
 21
12.1129
 31
0.0
  0
LINE
  8
0
 62
     9
 10
24.474
 20
12.1129
 30
0.0
 11
24.434
 21
12.1267
 31
0.0
  0
LINE
  8
0
 62
     9
 10
24.434
 20
12.1267
 30
0.0
 11
24.3733
 21
12.1199
 31
0.0
  0
LINE
  8
0
 62
     9
 10
24.3733
 20
12.1199
 30
0.0
 11
24.157
 21
12.1598
 31
0.0
  0
LINE
  8
0
 62
     9
 10
24.157
 20
12.1598
 30
0.0
 11
23.9875
 21
12.2149
 31
0.0
  0
LINE
  8
0
 62
     9
 10
23.9875
 20
12.2149
 30
0.0
 11
23.9324
 21
12.2149
 31
0.0
  0
LINE
  8
0
 62
     9
 10
23.9324
 20
12.2149
 30
0.0
 11
23.7836
 21
12.2149
 31
0.0
  0
LINE
  8
0
 62
     9
 10
23.7836
 20
12.2149
 30
0.0
 11
23.3702
 21
12.124
 31
0.0
  0
LINE
  8
0
 62
     9
 10
23.3702
 20
12.124
 30
0.0
 11
23.3371
 21
12.1047
 31
0.0
  0
LINE
  8
0
 62
     9
 10
23.3371
 20
12.1047
 30
0.0
 11
23.2888
 21
12.0688
 31
0.0
  0
LINE
  8
0
 62
     9
 10
23.2888
 20
12.0688
 30
0.0
 11
23.1635
 21
11.9366
 31
0.0
  0
LINE
  8
0
 62
     9
 10
23.1635
 20
11.9366
 30
0.0
 11
23.1386
 21
11.8153
 31
0.0
  0
LINE
  8
0
 62
     9
 10
23.1386
 20
11.8153
 30
0.0
 11
23.1386
 21
11.774
 31
0.0
  0
LINE
  8
0
 62
     9
 10
23.1386
 20
11.774
 30
0.0
 11
23.1442
 21
11.7588
 31
0.0
  0
LINE
  8
0
 62
     9
 10
23.1442
 20
11.7588
 30
0.0
 11
23.2833
 21
11.7671
 31
0.0
  0
LINE
  8
0
 62
     9
 10
23.2833
 20
11.7671
 30
0.0
 11
23.304
 21
11.763
 31
0.0
  0
LINE
  8
0
 62
     9
 10
23.304
 20
11.763
 30
0.0
 11
23.3109
 21
11.7381
 31
0.0
  0
LINE
  8
0
 62
     9
 10
23.3109
 20
11.7381
 30
0.0
 11
23.4597
 21
11.6954
 31
0.0
  0
LINE
  8
0
 62
     9
 10
23.4597
 20
11.6954
 30
0.0
 11
23.7064
 21
11.6775
 31
0.0
  0
LINE
  8
0
 62
     9
 10
23.7064
 20
11.6775
 30
0.0
 11
23.7615
 21
11.6637
 31
0.0
  0
LINE
  8
0
 62
     9
 10
23.7615
 20
11.6637
 30
0.0
 11
23.8938
 21
11.6307
 31
0.0
  0
LINE
  8
0
 62
     9
 10
23.8938
 20
11.6307
 30
0.0
 11
23.9875
 21
11.6003
 31
0.0
  0
LINE
  8
0
 62
     9
 10
23.9875
 20
11.6003
 30
0.0
 11
24.6765
 21
11.2613
 31
0.0
  0
LINE
  8
0
 62
     9
 10
24.6765
 20
11.2613
 30
0.0
 11
24.7151
 21
11.2117
 31
0.0
  0
LINE
  8
0
 62
     9
 10
24.7151
 20
11.2117
 30
0.0
 11
24.7399
 21
11.1593
 31
0.0
  0
LINE
  8
0
 62
     9
 10
24.7399
 20
11.1593
 30
0.0
 11
24.8557
 21
10.8452
 31
0.0
  0
LINE
  8
0
 62
     9
 10
24.8557
 20
10.8452
 30
0.0
 11
24.9094
 21
10.451
 31
0.0
  0
LINE
  8
0
 62
     9
 10
24.9094
 20
10.451
 30
0.0
 11
24.9025
 21
10.3573
 31
0.0
  0
LINE
  8
0
 62
     9
 10
24.9025
 20
10.3573
 30
0.0
 11
24.9025
 21
10.2499
 31
0.0
  0
LINE
  8
0
 62
     9
 10
24.9025
 20
10.2499
 30
0.0
 11
24.8116
 21
9.926
 31
0.0
  0
LINE
  8
0
 62
     9
 10
24.8116
 20
9.926
 30
0.0
 11
24.6035
 21
9.69589
 31
0.0
  0
LINE
  8
0
 62
     9
 10
24.6035
 20
9.69589
 30
0.0
 11
24.5442
 21
9.65179
 31
0.0
  0
LINE
  8
0
 62
     9
 10
24.5442
 20
9.65179
 30
0.0
 11
24.456
 21
9.58702
 31
0.0
  0
LINE
  8
0
 62
     9
 10
24.456
 20
9.58702
 30
0.0
 11
24.0798
 21
9.4258
 31
0.0
  0
LINE
  8
0
 62
     9
 10
24.0798
 20
9.4258
 30
0.0
 11
23.6954
 21
9.39271
 31
0.0
  0
LINE
  8
0
 62
     9
 10
23.6954
 20
9.39271
 30
0.0
 11
23.5686
 21
9.39271
 31
0.0
  0
LINE
  8
0
 62
     9
 10
23.5686
 20
9.39271
 30
0.0
 11
23.4335
 21
9.39271
 31
0.0
  0
LINE
  8
0
 62
     9
 10
23.4335
 20
9.39271
 30
0.0
 11
23.0753
 21
9.46711
 31
0.0
  0
LINE
  8
0
 62
     9
 10
23.0753
 20
9.46711
 30
0.0
 11
23.0284
 21
9.4809
 31
0.0
  0
LINE
  8
0
 62
     9
 10
23.0284
 20
9.4809
 30
0.0
 11
22.9609
 21
9.48916
 31
0.0
  0
LINE
  8
0
 62
     9
 10
22.9609
 20
9.48916
 30
0.0
 11
22.7073
 21
9.58014
 31
0.0
  0
LINE
  8
0
 62
     9
 10
22.7073
 20
9.58014
 30
0.0
 11
22.4855
 21
9.71656
 31
0.0
  0
LINE
  8
0
 62
     9
 10
22.4855
 20
9.71656
 30
0.0
 11
22.4331
 21
9.74549
 31
0.0
  0
LINE
  8
0
 62
     9
 10
22.4331
 20
9.74549
 30
0.0
 11
22.4331
 21
10.451
 31
0.0
  0
LINE
  8
0
 62
     9
 10
22.4331
 20
10.451
 30
0.0
 11
22.4772
 21
10.4221
 31
0.0
  0
LINE
  8
0
 62
     9
 10
22.4772
 20
10.4221
 30
0.0
 11
22.9181
 21
10.2016
 31
0.0
  0
LINE
  8
0
 62
     9
 10
22.9181
 20
10.2016
 30
0.0
 11
22.9622
 21
10.1865
 31
0.0
  0
LINE
  8
0
 62
     9
 10
22.9622
 20
10.1865
 30
0.0
 11
22.9912
 21
10.1644
 31
0.0
  0
LINE
  8
0
 62
     9
 10
22.9912
 20
10.1644
 30
0.0
 11
23.3577
 21
10.0983
 31
0.0
  0
LINE
  8
0
 62
     9
 10
23.3577
 20
10.0983
 30
0.0
 11
23.4804
 21
10.0983
 31
0.0
  0
LINE
  8
0
 62
     9
 10
23.4804
 20
10.0983
 30
0.0
 11
23.6127
 21
10.0983
 31
0.0
  0
LINE
  8
0
 62
     9
 10
23.6127
 20
10.0983
 30
0.0
 11
23.9793
 21
10.1865
 31
0.0
  0
LINE
  8
0
 62
     9
 10
23.9793
 20
10.1865
 30
0.0
 11
24.0096
 21
10.203
 31
0.0
  0
LINE
  8
0
 62
     9
 10
24.0096
 20
10.203
 30
0.0
 11
24.0261
 21
10.2126
 31
0.0
  0
LINE
  8
0
 62
     9
 10
24.0261
 20
10.2126
 30
0.0
 11
24.197
 21
10.4372
 31
0.0
  0
LINE
  8
0
 62
     9
 10
24.197
 20
10.4372
 30
0.0
 11
24.197
 21
10.5117
 31
0.0
  0
LINE
  8
0
 62
     9
 10
24.197
 20
10.5117
 30
0.0
 11
24.197
 21
10.582
 31
0.0
  0
LINE
  8
0
 62
     9
 10
24.197
 20
10.582
 30
0.0
 11
24.1046
 21
10.7763
 31
0.0
  0
LINE
  8
0
 62
     9
 10
24.1046
 20
10.7763
 30
0.0
 11
24.0867
 21
10.7928
 31
0.0
  0
LINE
  8
0
 62
     9
 10
24.0867
 20
10.7928
 30
0.0
 11
24.0482
 21
10.7818
 31
0.0
  0
LINE
  8
0
 62
     9
 10
24.0482
 20
10.7818
 30
0.0
 11
23.8786
 21
10.8465
 31
0.0
  0
LINE
  8
0
 62
     9
 10
23.8786
 20
10.8465
 30
0.0
 11
23.6595
 21
10.9664
 31
0.0
  0
LINE
  8
0
 62
     9
 10
23.6595
 20
10.9664
 30
0.0
 11
23.5961
 21
10.9802
 31
0.0
  0
LINE
  8
0
 62
     9
 10
23.5961
 20
10.9802
 30
0.0
 11
23.4583
 21
11.0133
 31
0.0
  0
LINE
  8
0
 62
     9
 10
23.4583
 20
11.0133
 30
0.0
 11
23.3316
 21
11.0133
 31
0.0
  0
LINE
  8
0
 62
     9
 10
23.3316
 20
11.0133
 30
0.0
 11
22.9512
 21
11.1208
 31
0.0
  0
LINE
  8
0
 62
     9
 10
22.9512
 20
11.1208
 30
0.0
 11
22.7156
 21
11.3027
 31
0.0
  0
LINE
  8
0
 62
     9
 10
22.7156
 20
11.3027
 30
0.0
 11
22.6756
 21
11.3385
 31
0.0
  0
LINE
  8
0
 62
     9
 10
22.6756
 20
11.3385
 30
0.0
 11
22.615
 21
11.3605
 31
0.0
  0
LINE
  8
0
 62
     9
 10
22.615
 20
11.3605
 30
0.0
 11
22.4634
 21
11.5783
 31
0.0
  0
LINE
  8
0
 62
     9
 10
22.4634
 20
11.5783
 30
0.0
 11
22.4331
 21
11.8539
 31
0.0
  0
LINE
  8
0
 62
     9
 10
22.4331
 20
11.8539
 30
0.0
 11
22.4331
 21
11.9448
 31
0.0
  0
LINE
  8
0
 62
     9
 10
22.4331
 20
11.9448
 30
0.0
 11
22.4331
 21
12.1254
 31
0.0
  0
LINE
  8
0
 62
     9
 10
22.4331
 20
12.1254
 30
0.0
 11
22.7225
 21
12.6256
 31
0.0
  0
LINE
  8
0
 62
     9
 10
22.7225
 20
12.6256
 30
0.0
 11
22.7803
 21
12.6669
 31
0.0
  0
LINE
  8
0
 62
     9
 10
22.7803
 20
12.6669
 30
0.0
 11
22.8093
 21
12.7014
 31
0.0
  0
LINE
  8
0
 62
     9
 10
22.8093
 20
12.7014
 30
0.0
 11
23.1621
 21
12.8447
 31
0.0
  0
LINE
  8
0
 62
     9
 10
23.1621
 20
12.8447
 30
0.0
 11
23.6237
 21
12.9205
 31
0.0
  0
LINE
  8
0
 62
     9
 10
23.6237
 20
12.9205
 30
0.0
 11
23.778
 21
12.9205
 31
0.0
  0
LINE
  8
0
 62
     9
 10
23.778
 20
12.9205
 30
0.0
 11
23.9282
 21
12.9205
 31
0.0
  0
LINE
  8
0
 62
     9
 10
23.9282
 20
12.9205
 30
0.0
 11
24.332
 21
12.8475
 31
0.0
  0
LINE
  8
0
 62
     9
 10
24.332
 20
12.8475
 30
0.0
 11
24.3789
 21
12.8323
 31
0.0
  0
LINE
  8
0
 62
     9
 10
24.3789
 20
12.8323
 30
0.0
 11
24.4106
 21
12.7964
 31
0.0
  0
LINE
  8
0
 62
     9
 10
24.4106
 20
12.7964
 30
0.0
 11
24.6297
 21
12.689
 31
0.0
  0
LINE
  8
0
 62
     9
 10
24.6297
 20
12.689
 30
0.0
 11
24.8626
 21
12.598
 31
0.0
  0
LINE
  8
0
 62
     9
 10
24.8626
 20
12.598
 30
0.0
 11
24.9025
 21
12.5677
 31
0.0
  0
LINE
  8
0
 62
     231
 10
24.8915
 20
12.7606
 30
0.0
 11
24.8915
 21
12.226
 31
0.0
  0
LINE
  8
0
 62
     231
 10
24.8915
 20
12.226
 30
0.0
 11
24.8502
 21
12.2466
 31
0.0
  0
LINE
  8
0
 62
     231
 10
24.8502
 20
12.2466
 30
0.0
 11
24.4326
 21
12.3982
 31
0.0
  0
LINE
  8
0
 62
     231
 10
24.4326
 20
12.3982
 30
0.0
 11
24.3899
 21
12.4079
 31
0.0
  0
LINE
  8
0
 62
     231
 10
24.3899
 20
12.4079
 30
0.0
 11
24.3458
 21
12.4189
 31
0.0
  0
LINE
  8
0
 62
     231
 10
24.3458
 20
12.4189
 30
0.0
 11
23.9737
 21
12.474
 31
0.0
  0
LINE
  8
0
 62
     231
 10
23.9737
 20
12.474
 30
0.0
 11
23.8497
 21
12.474
 31
0.0
  0
LINE
  8
0
 62
     231
 10
23.8497
 20
12.474
 30
0.0
 11
23.6898
 21
12.474
 31
0.0
  0
LINE
  8
0
 62
     231
 10
23.6898
 20
12.474
 30
0.0
 11
23.2461
 21
12.3638
 31
0.0
  0
LINE
  8
0
 62
     231
 10
23.2461
 20
12.3638
 30
0.0
 11
23.2103
 21
12.3417
 31
0.0
  0
LINE
  8
0
 62
     231
 10
23.2103
 20
12.3417
 30
0.0
 11
23.1745
 21
12.3197
 31
0.0
  0
LINE
  8
0
 62
     231
 10
23.1745
 20
12.3197
 30
0.0
 11
23.0008
 21
12.0427
 31
0.0
  0
LINE
  8
0
 62
     231
 10
23.0008
 20
12.0427
 30
0.0
 11
23.0008
 21
11.9503
 31
0.0
  0
LINE
  8
0
 62
     231
 10
23.0008
 20
11.9503
 30
0.0
 11
23.0008
 21
11.8718
 31
0.0
  0
LINE
  8
0
 62
     231
 10
23.0008
 20
11.8718
 30
0.0
 11
23.1249
 21
11.6555
 31
0.0
  0
LINE
  8
0
 62
     231
 10
23.1249
 20
11.6555
 30
0.0
 11
23.1497
 21
11.6362
 31
0.0
  0
LINE
  8
0
 62
     231
 10
23.1497
 20
11.6362
 30
0.0
 11
23.1745
 21
11.6182
 31
0.0
  0
LINE
  8
0
 62
     231
 10
23.1745
 20
11.6182
 30
0.0
 11
23.6843
 21
11.4391
 31
0.0
  0
LINE
  8
0
 62
     231
 10
23.6843
 20
11.4391
 30
0.0
 11
23.7615
 21
11.4212
 31
0.0
  0
LINE
  8
0
 62
     231
 10
23.7615
 20
11.4212
 30
0.0
 11
23.96
 21
11.3826
 31
0.0
  0
LINE
  8
0
 62
     231
 10
23.96
 20
11.3826
 30
0.0
 11
24.0605
 21
11.3605
 31
0.0
  0
LINE
  8
0
 62
     231
 10
24.0605
 20
11.3605
 30
0.0
 11
24.7771
 21
11.0532
 31
0.0
  0
LINE
  8
0
 62
     231
 10
24.7771
 20
11.0532
 30
0.0
 11
24.8199
 21
11.0133
 31
0.0
  0
LINE
  8
0
 62
     231
 10
24.8199
 20
11.0133
 30
0.0
 11
24.8626
 21
10.9747
 31
0.0
  0
LINE
  8
0
 62
     231
 10
24.8626
 20
10.9747
 30
0.0
 11
25.0789
 21
10.5076
 31
0.0
  0
LINE
  8
0
 62
     231
 10
25.0789
 20
10.5076
 30
0.0
 11
25.0789
 21
10.3518
 31
0.0
  0
LINE
  8
0
 62
     231
 10
25.0789
 20
10.3518
 30
0.0
 11
25.0789
 21
10.1603
 31
0.0
  0
LINE
  8
0
 62
     231
 10
25.0789
 20
10.1603
 30
0.0
 11
24.7565
 21
9.63249
 31
0.0
  0
LINE
  8
0
 62
     231
 10
24.7565
 20
9.63249
 30
0.0
 11
24.6931
 21
9.58564
 31
0.0
  0
LINE
  8
0
 62
     231
 10
24.6931
 20
9.58564
 30
0.0
 11
24.6297
 21
9.53879
 31
0.0
  0
LINE
  8
0
 62
     231
 10
24.6297
 20
9.53879
 30
0.0
 11
23.8911
 21
9.30451
 31
0.0
  0
LINE
  8
0
 62
     231
 10
23.8911
 20
9.30451
 30
0.0
 11
23.6457
 21
9.30451
 31
0.0
  0
LINE
  8
0
 62
     231
 10
23.6457
 20
9.30451
 30
0.0
 11
23.4997
 21
9.30451
 31
0.0
  0
LINE
  8
0
 62
     231
 10
23.4997
 20
9.30451
 30
0.0
 11
23.1111
 21
9.35136
 31
0.0
  0
LINE
  8
0
 62
     231
 10
23.1111
 20
9.35136
 30
0.0
 11
23.0615
 21
9.35965
 31
0.0
  0
LINE
  8
0
 62
     231
 10
23.0615
 20
9.35965
 30
0.0
 11
23.0105
 21
9.36791
 31
0.0
  0
LINE
  8
0
 62
     231
 10
23.0105
 20
9.36791
 30
0.0
 11
22.4772
 21
9.50158
 31
0.0
  0
LINE
  8
0
 62
     231
 10
22.4772
 20
9.50158
 30
0.0
 11
22.4221
 21
9.5195
 31
0.0
  0
LINE
  8
0
 62
     231
 10
22.4221
 20
9.5195
 30
0.0
 11
22.4221
 21
10.1093
 31
0.0
  0
LINE
  8
0
 62
     231
 10
22.4221
 20
10.1093
 30
0.0
 11
22.4744
 21
10.0817
 31
0.0
  0
LINE
  8
0
 62
     231
 10
22.4744
 20
10.0817
 30
0.0
 11
22.994
 21
9.87503
 31
0.0
  0
LINE
  8
0
 62
     231
 10
22.994
 20
9.87503
 30
0.0
 11
23.0449
 21
9.86123
 31
0.0
  0
LINE
  8
0
 62
     231
 10
23.0449
 20
9.86123
 30
0.0
 11
23.0959
 21
9.84747
 31
0.0
  0
LINE
  8
0
 62
     231
 10
23.0959
 20
9.84747
 30
0.0
 11
23.5162
 21
9.77858
 31
0.0
  0
LINE
  8
0
 62
     231
 10
23.5162
 20
9.77858
 30
0.0
 11
23.6568
 21
9.77858
 31
0.0
  0
LINE
  8
0
 62
     231
 10
23.6568
 20
9.77858
 30
0.0
 11
23.8111
 21
9.77858
 31
0.0
  0
LINE
  8
0
 62
     231
 10
23.8111
 20
9.77858
 30
0.0
 11
24.2383
 21
9.89432
 31
0.0
  0
LINE
  8
0
 62
     231
 10
24.2383
 20
9.89432
 30
0.0
 11
24.2741
 21
9.91637
 31
0.0
  0
LINE
  8
0
 62
     231
 10
24.2741
 20
9.91637
 30
0.0
 11
24.31
 21
9.9398
 31
0.0
  0
LINE
  8
0
 62
     231
 10
24.31
 20
9.9398
 30
0.0
 11
24.4946
 21
10.2168
 31
0.0
  0
LINE
  8
0
 62
     231
 10
24.4946
 20
10.2168
 30
0.0
 11
24.4946
 21
10.3077
 31
0.0
  0
LINE
  8
0
 62
     231
 10
24.4946
 20
10.3077
 30
0.0
 11
24.4946
 21
10.3959
 31
0.0
  0
LINE
  8
0
 62
     231
 10
24.4946
 20
10.3959
 30
0.0
 11
24.361
 21
10.6412
 31
0.0
  0
LINE
  8
0
 62
     231
 10
24.361
 20
10.6412
 30
0.0
 11
24.3348
 21
10.6605
 31
0.0
  0
LINE
  8
0
 62
     231
 10
24.3348
 20
10.6605
 30
0.0
 11
24.3086
 21
10.6826
 31
0.0
  0
LINE
  8
0
 62
     231
 10
24.3086
 20
10.6826
 30
0.0
 11
23.7395
 21
10.8838
 31
0.0
  0
LINE
  8
0
 62
     231
 10
23.7395
 20
10.8838
 30
0.0
 11
23.6513
 21
10.9031
 31
0.0
  0
LINE
  8
0
 62
     231
 10
23.6513
 20
10.9031
 30
0.0
 11
23.4528
 21
10.9472
 31
0.0
  0
LINE
  8
0
 62
     231
 10
23.4528
 20
10.9472
 30
0.0
 11
23.3633
 21
10.9664
 31
0.0
  0
LINE
  8
0
 62
     231
 10
23.3633
 20
10.9664
 30
0.0
 11
22.7197
 21
11.2517
 31
0.0
  0
LINE
  8
0
 62
     231
 10
22.7197
 20
11.2517
 30
0.0
 11
22.6811
 21
11.2889
 31
0.0
  0
LINE
  8
0
 62
     231
 10
22.6811
 20
11.2889
 30
0.0
 11
22.6425
 21
11.3275
 31
0.0
  0
LINE
  8
0
 62
     231
 10
22.6425
 20
11.3275
 30
0.0
 11
22.4496
 21
11.7781
 31
0.0
  0
LINE
  8
0
 62
     231
 10
22.4496
 20
11.7781
 30
0.0
 11
22.4496
 21
11.9283
 31
0.0
  0
LINE
  8
0
 62
     231
 10
22.4496
 20
11.9283
 30
0.0
 11
22.4496
 21
12.1157
 31
0.0
  0
LINE
  8
0
 62
     231
 10
22.4496
 20
12.1157
 30
0.0
 11
22.739
 21
12.6339
 31
0.0
  0
LINE
  8
0
 62
     231
 10
22.739
 20
12.6339
 30
0.0
 11
22.7969
 21
12.678
 31
0.0
  0
LINE
  8
0
 62
     231
 10
22.7969
 20
12.678
 30
0.0
 11
22.8548
 21
12.7234
 31
0.0
  0
LINE
  8
0
 62
     231
 10
22.8548
 20
12.7234
 30
0.0
 11
23.5507
 21
12.948
 31
0.0
  0
LINE
  8
0
 62
     231
 10
23.5507
 20
12.948
 30
0.0
 11
23.7836
 21
12.948
 31
0.0
  0
LINE
  8
0
 62
     231
 10
23.7836
 20
12.948
 30
0.0
 11
23.931
 21
12.948
 31
0.0
  0
LINE
  8
0
 62
     231
 10
23.931
 20
12.948
 30
0.0
 11
24.3265
 21
12.9067
 31
0.0
  0
LINE
  8
0
 62
     231
 10
24.3265
 20
12.9067
 30
0.0
 11
24.3733
 21
12.8984
 31
0.0
  0
LINE
  8
0
 62
     231
 10
24.3733
 20
12.8984
 30
0.0
 11
24.4202
 21
12.8916
 31
0.0
  0
LINE
  8
0
 62
     231
 10
24.4202
 20
12.8916
 30
0.0
 11
24.8515
 21
12.7772
 31
0.0
  0
LINE
  8
0
 62
     231
 10
24.8515
 20
12.7772
 30
0.0
 11
24.8915
 21
12.7606
 31
0.0
  0
LINE
  8
0
 62
     9
 10
27.5084
 20
12.2149
 30
0.0
 11
27.3141
 21
12.2149
 31
0.0
  0
LINE
  8
0
 62
     9
 10
27.3141
 20
12.2149
 30
0.0
 11
26.7781
 21
11.9765
 31
0.0
  0
LINE
  8
0
 62
     9
 10
26.7781
 20
11.9765
 30
0.0
 11
26.7312
 21
11.9283
 31
0.0
  0
LINE
  8
0
 62
     9
 10
26.7312
 20
11.9283
 30
0.0
 11
26.6609
 21
11.8759
 31
0.0
  0
LINE
  8
0
 62
     9
 10
26.6609
 20
11.8759
 30
0.0
 11
26.4845
 21
11.5866
 31
0.0
  0
LINE
  8
0
 62
     9
 10
26.4845
 20
11.5866
 30
0.0
 11
26.4501
 21
11.2641
 31
0.0
  0
LINE
  8
0
 62
     9
 10
26.4501
 20
11.2641
 30
0.0
 11
26.4501
 21
11.1566
 31
0.0
  0
LINE
  8
0
 62
     9
 10
26.4501
 20
11.1566
 30
0.0
 11
26.4501
 21
10.9623
 31
0.0
  0
LINE
  8
0
 62
     9
 10
26.4501
 20
10.9623
 30
0.0
 11
26.6843
 21
10.4276
 31
0.0
  0
LINE
  8
0
 62
     9
 10
26.6843
 20
10.4276
 30
0.0
 11
26.7312
 21
10.3794
 31
0.0
  0
LINE
  8
0
 62
     9
 10
26.7312
 20
10.3794
 30
0.0
 11
26.7546
 21
10.3091
 31
0.0
  0
LINE
  8
0
 62
     9
 10
26.7546
 20
10.3091
 30
0.0
 11
27.033
 21
10.1341
 31
0.0
  0
LINE
  8
0
 62
     9
 10
27.033
 20
10.1341
 30
0.0
 11
27.3885
 21
10.0983
 31
0.0
  0
LINE
  8
0
 62
     9
 10
27.3885
 20
10.0983
 30
0.0
 11
27.5084
 21
10.0983
 31
0.0
  0
LINE
  8
0
 62
     9
 10
27.5084
 20
10.0983
 30
0.0
 11
27.7013
 21
10.0983
 31
0.0
  0
LINE
  8
0
 62
     9
 10
27.7013
 20
10.0983
 30
0.0
 11
28.2333
 21
10.3325
 31
0.0
  0
LINE
  8
0
 62
     9
 10
28.2333
 20
10.3325
 30
0.0
 11
28.2801
 21
10.3794
 31
0.0
  0
LINE
  8
0
 62
     9
 10
28.2801
 20
10.3794
 30
0.0
 11
28.3215
 21
10.4042
 31
0.0
  0
LINE
  8
0
 62
     9
 10
28.3215
 20
10.4042
 30
0.0
 11
28.4854
 21
10.6812
 31
0.0
  0
LINE
  8
0
 62
     9
 10
28.4854
 20
10.6812
 30
0.0
 11
28.5667
 21
11.0381
 31
0.0
  0
LINE
  8
0
 62
     9
 10
28.5667
 20
11.0381
 30
0.0
 11
28.5667
 21
11.1566
 31
0.0
  0
LINE
  8
0
 62
     9
 10
28.5667
 20
11.1566
 30
0.0
 11
28.5667
 21
11.3495
 31
0.0
  0
LINE
  8
0
 62
     9
 10
28.5667
 20
11.3495
 30
0.0
 11
28.327
 21
11.8814
 31
0.0
  0
LINE
  8
0
 62
     9
 10
28.327
 20
11.8814
 30
0.0
 11
28.2801
 21
11.9283
 31
0.0
  0
LINE
  8
0
 62
     9
 10
28.2801
 20
11.9283
 30
0.0
 11
28.2277
 21
11.971
 31
0.0
  0
LINE
  8
0
 62
     9
 10
28.2277
 20
11.971
 30
0.0
 11
27.6876
 21
12.2149
 31
0.0
  0
LINE
  8
0
 62
     9
 10
27.6876
 20
12.2149
 30
0.0
 11
27.5084
 21
12.2149
 31
0.0
  0
LINE
  8
0
 62
     9
 10
27.5084
 20
12.9205
 30
0.0
 11
27.6903
 21
12.9205
 31
0.0
  0
LINE
  8
0
 62
     9
 10
27.6903
 20
12.9205
 30
0.0
 11
28.2401
 21
12.8034
 31
0.0
  0
LINE
  8
0
 62
     9
 10
28.2401
 20
12.8034
 30
0.0
 11
28.7197
 21
12.5305
 31
0.0
  0
LINE
  8
0
 62
     9
 10
28.7197
 20
12.5305
 30
0.0
 11
28.7982
 21
12.452
 31
0.0
  0
LINE
  8
0
 62
     9
 10
28.7982
 20
12.452
 30
0.0
 11
28.8575
 21
12.3541
 31
0.0
  0
LINE
  8
0
 62
     9
 10
28.8575
 20
12.3541
 30
0.0
 11
29.1235
 21
11.8649
 31
0.0
  0
LINE
  8
0
 62
     9
 10
29.1235
 20
11.8649
 30
0.0
 11
29.2723
 21
11.3344
 31
0.0
  0
LINE
  8
0
 62
     9
 10
29.2723
 20
11.3344
 30
0.0
 11
29.2723
 21
11.1566
 31
0.0
  0
LINE
  8
0
 62
     9
 10
29.2723
 20
11.1566
 30
0.0
 11
29.2723
 21
10.9733
 31
0.0
  0
LINE
  8
0
 62
     9
 10
29.2723
 20
10.9733
 30
0.0
 11
29.1524
 21
10.4194
 31
0.0
  0
LINE
  8
0
 62
     9
 10
29.1524
 20
10.4194
 30
0.0
 11
28.8768
 21
9.9398
 31
0.0
  0
LINE
  8
0
 62
     9
 10
28.8768
 20
9.9398
 30
0.0
 11
28.7982
 21
9.86123
 31
0.0
  0
LINE
  8
0
 62
     9
 10
28.7982
 20
9.86123
 30
0.0
 11
28.7004
 21
9.77441
 31
0.0
  0
LINE
  8
0
 62
     9
 10
28.7004
 20
9.77441
 30
0.0
 11
28.2112
 21
9.49607
 31
0.0
  0
LINE
  8
0
 62
     9
 10
28.2112
 20
9.49607
 30
0.0
 11
27.6834
 21
9.39271
 31
0.0
  0
LINE
  8
0
 62
     9
 10
27.6834
 20
9.39271
 30
0.0
 11
27.5084
 21
9.39271
 31
0.0
  0
LINE
  8
0
 62
     9
 10
27.5084
 20
9.39271
 30
0.0
 11
27.3237
 21
9.39271
 31
0.0
  0
LINE
  8
0
 62
     9
 10
27.3237
 20
9.39271
 30
0.0
 11
26.7698
 21
9.50983
 31
0.0
  0
LINE
  8
0
 62
     9
 10
26.7698
 20
9.50983
 30
0.0
 11
26.2902
 21
9.78408
 31
0.0
  0
LINE
  8
0
 62
     9
 10
26.2902
 20
9.78408
 30
0.0
 11
26.213
 21
9.86123
 31
0.0
  0
LINE
  8
0
 62
     9
 10
26.213
 20
9.86123
 30
0.0
 11
26.1249
 21
9.93013
 31
0.0
  0
LINE
  8
0
 62
     9
 10
26.1249
 20
9.93013
 30
0.0
 11
25.8465
 21
10.4056
 31
0.0
  0
LINE
  8
0
 62
     9
 10
25.8465
 20
10.4056
 30
0.0
 11
25.7445
 21
10.9692
 31
0.0
  0
LINE
  8
0
 62
     9
 10
25.7445
 20
10.9692
 30
0.0
 11
25.7445
 21
11.1566
 31
0.0
  0
LINE
  8
0
 62
     9
 10
25.7445
 20
11.1566
 30
0.0
 11
25.7445
 21
11.3412
 31
0.0
  0
LINE
  8
0
 62
     9
 10
25.7445
 20
11.3412
 30
0.0
 11
25.8603
 21
11.8938
 31
0.0
  0
LINE
  8
0
 62
     9
 10
25.8603
 20
11.8938
 30
0.0
 11
26.1345
 21
12.3748
 31
0.0
  0
LINE
  8
0
 62
     9
 10
26.1345
 20
12.3748
 30
0.0
 11
26.213
 21
12.452
 31
0.0
  0
LINE
  8
0
 62
     9
 10
26.213
 20
12.452
 30
0.0
 11
26.2806
 21
12.5112
 31
0.0
  0
LINE
  8
0
 62
     9
 10
26.2806
 20
12.5112
 30
0.0
 11
26.756
 21
12.7744
 31
0.0
  0
LINE
  8
0
 62
     9
 10
26.756
 20
12.7744
 30
0.0
 11
27.3196
 21
12.9205
 31
0.0
  0
LINE
  8
0
 62
     9
 10
27.3196
 20
12.9205
 30
0.0
 11
27.5084
 21
12.9205
 31
0.0
  0
LINE
  8
0
 62
     231
 10
27.3375
 20
12.463
 30
0.0
 11
27.1556
 21
12.463
 31
0.0
  0
LINE
  8
0
 62
     231
 10
27.1556
 20
12.463
 30
0.0
 11
26.654
 21
12.1653
 31
0.0
  0
LINE
  8
0
 62
     231
 10
26.654
 20
12.1653
 30
0.0
 11
26.6099
 21
12.1047
 31
0.0
  0
LINE
  8
0
 62
     231
 10
26.6099
 20
12.1047
 30
0.0
 11
26.5658
 21
12.0468
 31
0.0
  0
LINE
  8
0
 62
     231
 10
26.5658
 20
12.0468
 30
0.0
 11
26.3453
 21
11.355
 31
0.0
  0
LINE
  8
0
 62
     231
 10
26.3453
 20
11.355
 30
0.0
 11
26.3453
 21
11.1235
 31
0.0
  0
LINE
  8
0
 62
     231
 10
26.3453
 20
11.1235
 30
0.0
 11
26.3453
 21
10.8782
 31
0.0
  0
LINE
  8
0
 62
     231
 10
26.3453
 20
10.8782
 30
0.0
 11
26.5658
 21
10.203
 31
0.0
  0
LINE
  8
0
 62
     231
 10
26.5658
 20
10.203
 30
0.0
 11
26.6099
 21
10.1424
 31
0.0
  0
LINE
  8
0
 62
     231
 10
26.6099
 20
10.1424
 30
0.0
 11
26.654
 21
10.0831
 31
0.0
  0
LINE
  8
0
 62
     231
 10
26.654
 20
10.0831
 30
0.0
 11
27.1666
 21
9.78408
 31
0.0
  0
LINE
  8
0
 62
     231
 10
27.1666
 20
9.78408
 30
0.0
 11
27.3375
 21
9.78408
 31
0.0
  0
LINE
  8
0
 62
     231
 10
27.3375
 20
9.78408
 30
0.0
 11
27.5167
 21
9.78408
 31
0.0
  0
LINE
  8
0
 62
     231
 10
27.5167
 20
9.78408
 30
0.0
 11
28.01
 21
10.0831
 31
0.0
  0
LINE
  8
0
 62
     231
 10
28.01
 20
10.0831
 30
0.0
 11
28.0541
 21
10.1424
 31
0.0
  0
LINE
  8
0
 62
     231
 10
28.0541
 20
10.1424
 30
0.0
 11
28.0982
 21
10.203
 31
0.0
  0
LINE
  8
0
 62
     231
 10
28.0982
 20
10.203
 30
0.0
 11
28.3242
 21
10.8934
 31
0.0
  0
LINE
  8
0
 62
     231
 10
28.3242
 20
10.8934
 30
0.0
 11
28.3242
 21
11.1235
 31
0.0
  0
LINE
  8
0
 62
     231
 10
28.3242
 20
11.1235
 30
0.0
 11
28.3242
 21
11.3675
 31
0.0
  0
LINE
  8
0
 62
     231
 10
28.3242
 20
11.3675
 30
0.0
 11
28.0982
 21
12.0399
 31
0.0
  0
LINE
  8
0
 62
     231
 10
28.0982
 20
12.0399
 30
0.0
 11
28.0541
 21
12.0992
 31
0.0
  0
LINE
  8
0
 62
     231
 10
28.0541
 20
12.0992
 30
0.0
 11
28.01
 21
12.1598
 31
0.0
  0
LINE
  8
0
 62
     231
 10
28.01
 20
12.1598
 30
0.0
 11
27.5057
 21
12.463
 31
0.0
  0
LINE
  8
0
 62
     231
 10
27.5057
 20
12.463
 30
0.0
 11
27.3375
 21
12.463
 31
0.0
  0
LINE
  8
0
 62
     231
 10
27.3375
 20
12.948
 30
0.0
 11
27.5029
 21
12.948
 31
0.0
  0
LINE
  8
0
 62
     231
 10
27.5029
 20
12.948
 30
0.0
 11
28.0004
 21
12.8268
 31
0.0
  0
LINE
  8
0
 62
     231
 10
28.0004
 20
12.8268
 30
0.0
 11
28.4345
 21
12.5443
 31
0.0
  0
LINE
  8
0
 62
     231
 10
28.4345
 20
12.5443
 30
0.0
 11
28.5061
 21
12.463
 31
0.0
  0
LINE
  8
0
 62
     231
 10
28.5061
 20
12.463
 30
0.0
 11
28.5764
 21
12.3831
 31
0.0
  0
LINE
  8
0
 62
     231
 10
28.5764
 20
12.3831
 30
0.0
 11
28.823
 21
11.8883
 31
0.0
  0
LINE
  8
0
 62
     231
 10
28.823
 20
11.8883
 30
0.0
 11
28.9305
 21
11.3151
 31
0.0
  0
LINE
  8
0
 62
     231
 10
28.9305
 20
11.3151
 30
0.0
 11
28.9305
 21
11.1235
 31
0.0
  0
LINE
  8
0
 62
     231
 10
28.9305
 20
11.1235
 30
0.0
 11
28.9305
 21
10.9347
 31
0.0
  0
LINE
  8
0
 62
     231
 10
28.9305
 20
10.9347
 30
0.0
 11
28.823
 21
10.3656
 31
0.0
  0
LINE
  8
0
 62
     231
 10
28.823
 20
10.3656
 30
0.0
 11
28.5764
 21
9.8709
 31
0.0
  0
LINE
  8
0
 62
     231
 10
28.5764
 20
9.8709
 30
0.0
 11
28.5061
 21
9.78958
 31
0.0
  0
LINE
  8
0
 62
     231
 10
28.5061
 20
9.78958
 30
0.0
 11
28.4345
 21
9.70964
 31
0.0
  0
LINE
  8
0
 62
     231
 10
28.4345
 20
9.70964
 30
0.0
 11
28.0004
 21
9.4258
 31
0.0
  0
LINE
  8
0
 62
     231
 10
28.0004
 20
9.4258
 30
0.0
 11
27.5029
 21
9.30451
 31
0.0
  0
LINE
  8
0
 62
     231
 10
27.5029
 20
9.30451
 30
0.0
 11
27.3375
 21
9.30451
 31
0.0
  0
LINE
  8
0
 62
     231
 10
27.3375
 20
9.30451
 30
0.0
 11
27.1694
 21
9.30451
 31
0.0
  0
LINE
  8
0
 62
     231
 10
27.1694
 20
9.30451
 30
0.0
 11
26.6678
 21
9.4258
 31
0.0
  0
LINE
  8
0
 62
     231
 10
26.6678
 20
9.4258
 30
0.0
 11
26.2337
 21
9.70964
 31
0.0
  0
LINE
  8
0
 62
     231
 10
26.2337
 20
9.70964
 30
0.0
 11
26.1634
 21
9.78958
 31
0.0
  0
LINE
  8
0
 62
     231
 10
26.1634
 20
9.78958
 30
0.0
 11
26.0931
 21
9.8709
 31
0.0
  0
LINE
  8
0
 62
     231
 10
26.0931
 20
9.8709
 30
0.0
 11
25.8479
 21
10.3656
 31
0.0
  0
LINE
  8
0
 62
     231
 10
25.8479
 20
10.3656
 30
0.0
 11
25.7445
 21
10.9347
 31
0.0
  0
LINE
  8
0
 62
     231
 10
25.7445
 20
10.9347
 30
0.0
 11
25.7445
 21
11.1235
 31
0.0
  0
LINE
  8
0
 62
     231
 10
25.7445
 20
11.1235
 30
0.0
 11
25.7445
 21
11.3151
 31
0.0
  0
LINE
  8
0
 62
     231
 10
25.7445
 20
11.3151
 30
0.0
 11
25.8479
 21
11.8883
 31
0.0
  0
LINE
  8
0
 62
     231
 10
25.8479
 20
11.8883
 30
0.0
 11
26.0931
 21
12.3831
 31
0.0
  0
LINE
  8
0
 62
     231
 10
26.0931
 20
12.3831
 30
0.0
 11
26.1634
 21
12.463
 31
0.0
  0
LINE
  8
0
 62
     231
 10
26.1634
 20
12.463
 30
0.0
 11
26.2337
 21
12.5443
 31
0.0
  0
LINE
  8
0
 62
     231
 10
26.2337
 20
12.5443
 30
0.0
 11
26.6678
 21
12.8268
 31
0.0
  0
LINE
  8
0
 62
     231
 10
26.6678
 20
12.8268
 30
0.0
 11
27.1694
 21
12.948
 31
0.0
  0
LINE
  8
0
 62
     231
 10
27.1694
 20
12.948
 30
0.0
 11
27.3375
 21
12.948
 31
0.0
  0
LINE
  8
0
 62
     9
 10
32.8015
 20
11.4102
 30
0.0
 11
32.8015
 21
9.39271
 31
0.0
  0
LINE
  8
0
 62
     9
 10
32.8015
 20
9.39271
 30
0.0
 11
32.0959
 21
9.39271
 31
0.0
  0
LINE
  8
0
 62
     9
 10
32.0959
 20
9.39271
 30
0.0
 11
32.0959
 21
11.3936
 31
0.0
  0
LINE
  8
0
 62
     9
 10
32.0959
 20
11.3936
 30
0.0
 11
32.0959
 21
11.548
 31
0.0
  0
LINE
  8
0
 62
     9
 10
32.0959
 20
11.548
 30
0.0
 11
31.9664
 21
11.9779
 31
0.0
  0
LINE
  8
0
 62
     9
 10
31.9664
 20
11.9779
 30
0.0
 11
31.9416
 21
12.011
 31
0.0
  0
LINE
  8
0
 62
     9
 10
31.9416
 20
12.011
 30
0.0
 11
31.8988
 21
12.033
 31
0.0
  0
LINE
  8
0
 62
     9
 10
31.8988
 20
12.033
 30
0.0
 11
31.7224
 21
12.146
 31
0.0
  0
LINE
  8
0
 62
     9
 10
31.7224
 20
12.146
 30
0.0
 11
31.5391
 21
12.2149
 31
0.0
  0
LINE
  8
0
 62
     9
 10
31.5391
 20
12.2149
 30
0.0
 11
31.4785
 21
12.2149
 31
0.0
  0
LINE
  8
0
 62
     9
 10
31.4785
 20
12.2149
 30
0.0
 11
31.3325
 21
12.2149
 31
0.0
  0
LINE
  8
0
 62
     9
 10
31.3325
 20
12.2149
 30
0.0
 11
30.9301
 21
12.0041
 31
0.0
  0
LINE
  8
0
 62
     9
 10
30.9301
 20
12.0041
 30
0.0
 11
30.8942
 21
11.9614
 31
0.0
  0
LINE
  8
0
 62
     9
 10
30.8942
 20
11.9614
 30
0.0
 11
30.8419
 21
11.9118
 31
0.0
  0
LINE
  8
0
 62
     9
 10
30.8419
 20
11.9118
 30
0.0
 11
30.711
 21
11.6555
 31
0.0
  0
LINE
  8
0
 62
     9
 10
30.711
 20
11.6555
 30
0.0
 11
30.6848
 21
11.3771
 31
0.0
  0
LINE
  8
0
 62
     9
 10
30.6848
 20
11.3771
 30
0.0
 11
30.6848
 21
11.2834
 31
0.0
  0
LINE
  8
0
 62
     9
 10
30.6848
 20
11.2834
 30
0.0
 11
30.6848
 21
9.39271
 31
0.0
  0
LINE
  8
0
 62
     9
 10
30.6848
 20
9.39271
 30
0.0
 11
29.9792
 21
9.39271
 31
0.0
  0
LINE
  8
0
 62
     9
 10
29.9792
 20
9.39271
 30
0.0
 11
29.9792
 21
12.9205
 31
0.0
  0
LINE
  8
0
 62
     9
 10
29.9792
 20
12.9205
 30
0.0
 11
30.6848
 21
12.9205
 31
0.0
  0
LINE
  8
0
 62
     9
 10
30.6848
 20
12.9205
 30
0.0
 11
30.6848
 21
12.2149
 31
0.0
  0
LINE
  8
0
 62
     9
 10
30.6848
 20
12.2149
 30
0.0
 11
30.7151
 21
12.2742
 31
0.0
  0
LINE
  8
0
 62
     9
 10
30.7151
 20
12.2742
 30
0.0
 11
31.0789
 21
12.7152
 31
0.0
  0
LINE
  8
0
 62
     9
 10
31.0789
 20
12.7152
 30
0.0
 11
31.1202
 21
12.7441
 31
0.0
  0
LINE
  8
0
 62
     9
 10
31.1202
 20
12.7441
 30
0.0
 11
31.1547
 21
12.7593
 31
0.0
  0
LINE
  8
0
 62
     9
 10
31.1547
 20
12.7593
 30
0.0
 11
31.5667
 21
12.9205
 31
0.0
  0
LINE
  8
0
 62
     9
 10
31.5667
 20
12.9205
 30
0.0
 11
31.7045
 21
12.9205
 31
0.0
  0
LINE
  8
0
 62
     9
 10
31.7045
 20
12.9205
 30
0.0
 11
31.812
 21
12.9205
 31
0.0
  0
LINE
  8
0
 62
     9
 10
31.812
 20
12.9205
 30
0.0
 11
32.1386
 21
12.824
 31
0.0
  0
LINE
  8
0
 62
     9
 10
32.1386
 20
12.824
 30
0.0
 11
32.4735
 21
12.5994
 31
0.0
  0
LINE
  8
0
 62
     9
 10
32.4735
 20
12.5994
 30
0.0
 11
32.5203
 21
12.5347
 31
0.0
  0
LINE
  8
0
 62
     9
 10
32.5203
 20
12.5347
 30
0.0
 11
32.5603
 21
12.445
 31
0.0
  0
LINE
  8
0
 62
     9
 10
32.5603
 20
12.445
 30
0.0
 11
32.7215
 21
12.0234
 31
0.0
  0
LINE
  8
0
 62
     9
 10
32.7215
 20
12.0234
 30
0.0
 11
32.8015
 21
11.5645
 31
0.0
  0
LINE
  8
0
 62
     9
 10
32.8015
 20
11.5645
 30
0.0
 11
32.8015
 21
11.4102
 31
0.0
  0
LINE
  8
0
 62
     231
 10
32.7574
 20
11.4873
 30
0.0
 11
32.7574
 21
9.39271
 31
0.0
  0
LINE
  8
0
 62
     231
 10
32.7574
 20
9.39271
 30
0.0
 11
32.1896
 21
9.39271
 31
0.0
  0
LINE
  8
0
 62
     231
 10
32.1896
 20
9.39271
 30
0.0
 11
32.1896
 21
11.4708
 31
0.0
  0
LINE
  8
0
 62
     231
 10
32.1896
 20
11.4708
 30
0.0
 11
32.1896
 21
11.6541
 31
0.0
  0
LINE
  8
0
 62
     231
 10
32.1896
 20
11.6541
 30
0.0
 11
32.0284
 21
12.164
 31
0.0
  0
LINE
  8
0
 62
     231
 10
32.0284
 20
12.164
 30
0.0
 11
31.9967
 21
12.2039
 31
0.0
  0
LINE
  8
0
 62
     231
 10
31.9967
 20
12.2039
 30
0.0
 11
31.9636
 21
12.2452
 31
0.0
  0
LINE
  8
0
 62
     231
 10
31.9636
 20
12.2452
 30
0.0
 11
31.5543
 21
12.452
 31
0.0
  0
LINE
  8
0
 62
     231
 10
31.5543
 20
12.452
 30
0.0
 11
31.4179
 21
12.452
 31
0.0
  0
LINE
  8
0
 62
     231
 10
31.4179
 20
12.452
 30
0.0
 11
31.236
 21
12.452
 31
0.0
  0
LINE
  8
0
 62
     231
 10
31.236
 20
12.452
 30
0.0
 11
30.7344
 21
12.2039
 31
0.0
  0
LINE
  8
0
 62
     231
 10
30.7344
 20
12.2039
 30
0.0
 11
30.6903
 21
12.1543
 31
0.0
  0
LINE
  8
0
 62
     231
 10
30.6903
 20
12.1543
 30
0.0
 11
30.6462
 21
12.1061
 31
0.0
  0
LINE
  8
0
 62
     231
 10
30.6462
 20
12.1061
 30
0.0
 11
30.4257
 21
11.5438
 31
0.0
  0
LINE
  8
0
 62
     231
 10
30.4257
 20
11.5438
 30
0.0
 11
30.4257
 21
11.355
 31
0.0
  0
LINE
  8
0
 62
     231
 10
30.4257
 20
11.355
 30
0.0
 11
30.4257
 21
9.39271
 31
0.0
  0
LINE
  8
0
 62
     231
 10
30.4257
 20
9.39271
 30
0.0
 11
29.8524
 21
9.39271
 31
0.0
  0
LINE
  8
0
 62
     231
 10
29.8524
 20
9.39271
 30
0.0
 11
29.8524
 21
12.8654
 31
0.0
  0
LINE
  8
0
 62
     231
 10
29.8524
 20
12.8654
 30
0.0
 11
30.4257
 21
12.8654
 31
0.0
  0
LINE
  8
0
 62
     231
 10
30.4257
 20
12.8654
 30
0.0
 11
30.4257
 21
12.3252
 31
0.0
  0
LINE
  8
0
 62
     231
 10
30.4257
 20
12.3252
 30
0.0
 11
30.4588
 21
12.3775
 31
0.0
  0
LINE
  8
0
 62
     231
 10
30.4588
 20
12.3775
 30
0.0
 11
30.8584
 21
12.7689
 31
0.0
  0
LINE
  8
0
 62
     231
 10
30.8584
 20
12.7689
 30
0.0
 11
30.9053
 21
12.7937
 31
0.0
  0
LINE
  8
0
 62
     231
 10
30.9053
 20
12.7937
 30
0.0
 11
30.9521
 21
12.8199
 31
0.0
  0
LINE
  8
0
 62
     231
 10
30.9521
 20
12.8199
 30
0.0
 11
31.3958
 21
12.948
 31
0.0
  0
LINE
  8
0
 62
     231
 10
31.3958
 20
12.948
 30
0.0
 11
31.5447
 21
12.948
 31
0.0
  0
LINE
  8
0
 62
     231
 10
31.5447
 20
12.948
 30
0.0
 11
31.7707
 21
12.948
 31
0.0
  0
LINE
  8
0
 62
     231
 10
31.7707
 20
12.948
 30
0.0
 11
32.3977
 21
12.6407
 31
0.0
  0
LINE
  8
0
 62
     231
 10
32.3977
 20
12.6407
 30
0.0
 11
32.4487
 21
12.5788
 31
0.0
  0
LINE
  8
0
 62
     231
 10
32.4487
 20
12.5788
 30
0.0
 11
32.4997
 21
12.5181
 31
0.0
  0
LINE
  8
0
 62
     231
 10
32.4997
 20
12.5181
 30
0.0
 11
32.7574
 21
11.745
 31
0.0
  0
LINE
  8
0
 62
     231
 10
32.7574
 20
11.745
 30
0.0
 11
32.7574
 21
11.4873
 31
0.0
  0
ENDSEC
  0
EOF
