  0
SECTION
  2
HEADER
  9
$ACADVER
  1
AC1009
  9
$EXTMIN
 10
0.0
 20
0.0
 30
0.0
  9
$EXTMAX
 10
1000.0
 20
1000.0
 30
0.0
  9
$FILLMODE
 70
 0
  9
$SPLFRAME
 70
 1
  0
ENDSEC
  0
SECTION
  2
TABLES
  0
TABLE
  2
LAYER
 70
1
  0
LAYER
  2
0
 70
     0
 62
     7
  6
CONTINUOUS
  0
ENDTAB
  0
ENDSEC
  0
SECTION
  2
ENTITIES
  0
LINE
  8
0
 62
     231
 10
0.132292
 20
53.049
 30
0.0
 11
53.049
 21
53.049
 31
0.0
  0
LINE
  8
0
 62
     231
 10
53.049
 20
53.049
 30
0.0
 11
53.049
 21
0.132292
 31
0.0
  0
LINE
  8
0
 62
     231
 10
53.049
 20
0.132292
 30
0.0
 11
0.132292
 21
0.132292
 31
0.0
  0
LINE
  8
0
 62
     231
 10
0.132292
 20
0.132292
 30
0.0
 11
0.132292
 21
53.049
 31
0.0
  0
LINE
  8
0
 62
     9
 10
16.0734
 20
11.4487
 30
0.0
 11
16.0872
 21
11.4129
 31
0.0
  0
LINE
  8
0
 62
     9
 10
16.0872
 20
11.4129
 30
0.0
 11
16.2429
 21
11.3027
 31
0.0
  0
LINE
  8
0
 62
     9
 10
16.2429
 20
11.3027
 30
0.0
 11
16.4373
 21
11.1897
 31
0.0
  0
LINE
  8
0
 62
     9
 10
16.4373
 20
11.1897
 30
0.0
 11
16.4703
 21
11.1511
 31
0.0
  0
LINE
  8
0
 62
     9
 10
16.4703
 20
11.1511
 30
0.0
 11
16.4786
 21
11.0863
 31
0.0
  0
LINE
  8
0
 62
     9
 10
16.4786
 20
11.0863
 30
0.0
 11
16.6315
 21
10.8438
 31
0.0
  0
LINE
  8
0
 62
     9
 10
16.6315
 20
10.8438
 30
0.0
 11
16.8341
 21
10.5999
 31
0.0
  0
LINE
  8
0
 62
     9
 10
16.8341
 20
10.5999
 30
0.0
 11
16.8672
 21
10.5337
 31
0.0
  0
LINE
  8
0
 62
     9
 10
16.8672
 20
10.5337
 30
0.0
 11
17.5948
 21
9.39271
 31
0.0
  0
LINE
  8
0
 62
     9
 10
17.5948
 20
9.39271
 30
0.0
 11
16.7569
 21
9.39271
 31
0.0
  0
LINE
  8
0
 62
     9
 10
16.7569
 20
9.39271
 30
0.0
 11
16.123
 21
10.4621
 31
0.0
  0
LINE
  8
0
 62
     9
 10
16.123
 20
10.4621
 30
0.0
 11
16.061
 21
10.531
 31
0.0
  0
LINE
  8
0
 62
     9
 10
16.061
 20
10.531
 30
0.0
 11
15.8722
 21
10.8093
 31
0.0
  0
LINE
  8
0
 62
     9
 10
15.8722
 20
10.8093
 30
0.0
 11
15.7413
 21
10.9968
 31
0.0
  0
LINE
  8
0
 62
     9
 10
15.7413
 20
10.9968
 30
0.0
 11
15.7097
 21
11.0188
 31
0.0
  0
LINE
  8
0
 62
     9
 10
15.7097
 20
11.0188
 30
0.0
 11
15.6573
 21
11.0243
 31
0.0
  0
LINE
  8
0
 62
     9
 10
15.6573
 20
11.0243
 30
0.0
 11
15.4671
 21
11.096
 31
0.0
  0
LINE
  8
0
 62
     9
 10
15.4671
 20
11.096
 30
0.0
 11
15.3017
 21
11.1566
 31
0.0
  0
LINE
  8
0
 62
     9
 10
15.3017
 20
11.1566
 30
0.0
 11
15.2466
 21
11.1566
 31
0.0
  0
LINE
  8
0
 62
     9
 10
15.2466
 20
11.1566
 30
0.0
 11
14.7726
 21
11.1566
 31
0.0
  0
LINE
  8
0
 62
     9
 10
14.7726
 20
11.1566
 30
0.0
 11
14.7726
 21
9.39271
 31
0.0
  0
LINE
  8
0
 62
     9
 10
14.7726
 20
9.39271
 30
0.0
 11
14.067
 21
9.39271
 31
0.0
  0
LINE
  8
0
 62
     9
 10
14.067
 20
9.39271
 30
0.0
 11
14.067
 21
13.9788
 31
0.0
  0
LINE
  8
0
 62
     9
 10
14.067
 20
13.9788
 30
0.0
 11
15.423
 21
13.9788
 31
0.0
  0
LINE
  8
0
 62
     9
 10
15.423
 20
13.9788
 30
0.0
 11
15.5746
 21
13.9788
 31
0.0
  0
LINE
  8
0
 62
     9
 10
15.5746
 20
13.9788
 30
0.0
 11
16.0293
 21
13.8934
 31
0.0
  0
LINE
  8
0
 62
     9
 10
16.0293
 20
13.8934
 30
0.0
 11
16.4648
 21
13.6949
 31
0.0
  0
LINE
  8
0
 62
     9
 10
16.4648
 20
13.6949
 30
0.0
 11
16.5255
 21
13.6371
 31
0.0
  0
LINE
  8
0
 62
     9
 10
16.5255
 20
13.6371
 30
0.0
 11
16.5571
 21
13.5792
 31
0.0
  0
LINE
  8
0
 62
     9
 10
16.5571
 20
13.5792
 30
0.0
 11
16.7542
 21
13.2071
 31
0.0
  0
LINE
  8
0
 62
     9
 10
16.7542
 20
13.2071
 30
0.0
 11
16.8892
 21
12.7565
 31
0.0
  0
LINE
  8
0
 62
     9
 10
16.8892
 20
12.7565
 30
0.0
 11
16.8892
 21
12.6063
 31
0.0
  0
LINE
  8
0
 62
     9
 10
16.8892
 20
12.6063
 30
0.0
 11
16.8892
 21
12.4189
 31
0.0
  0
LINE
  8
0
 62
     9
 10
16.8892
 20
12.4189
 30
0.0
 11
16.7142
 21
11.9063
 31
0.0
  0
LINE
  8
0
 62
     9
 10
16.7142
 20
11.9063
 30
0.0
 11
16.6798
 21
11.8567
 31
0.0
  0
LINE
  8
0
 62
     9
 10
16.6798
 20
11.8567
 30
0.0
 11
16.6329
 21
11.7795
 31
0.0
  0
LINE
  8
0
 62
     9
 10
16.6329
 20
11.7795
 30
0.0
 11
16.4055
 21
11.5659
 31
0.0
  0
LINE
  8
0
 62
     9
 10
16.4055
 20
11.5659
 30
0.0
 11
16.1396
 21
11.468
 31
0.0
  0
LINE
  8
0
 62
     9
 10
16.1396
 20
11.468
 30
0.0
 11
16.0734
 21
11.4487
 31
0.0
  0
LINE
  8
0
 62
     9
 10
14.7726
 20
13.2733
 30
0.0
 11
14.7726
 21
11.8622
 31
0.0
  0
LINE
  8
0
 62
     9
 10
14.7726
 20
11.8622
 30
0.0
 11
15.423
 21
11.8622
 31
0.0
  0
LINE
  8
0
 62
     9
 10
15.423
 20
11.8622
 30
0.0
 11
15.5649
 21
11.8622
 31
0.0
  0
LINE
  8
0
 62
     9
 10
15.5649
 20
11.8622
 30
0.0
 11
15.9577
 21
12.0096
 31
0.0
  0
LINE
  8
0
 62
     9
 10
15.9577
 20
12.0096
 30
0.0
 11
15.9907
 21
12.0385
 31
0.0
  0
LINE
  8
0
 62
     9
 10
15.9907
 20
12.0385
 30
0.0
 11
16.0087
 21
12.0551
 31
0.0
  0
LINE
  8
0
 62
     9
 10
16.0087
 20
12.0551
 30
0.0
 11
16.1148
 21
12.2397
 31
0.0
  0
LINE
  8
0
 62
     9
 10
16.1148
 20
12.2397
 30
0.0
 11
16.1837
 21
12.4864
 31
0.0
  0
LINE
  8
0
 62
     9
 10
16.1837
 20
12.4864
 30
0.0
 11
16.1837
 21
12.5677
 31
0.0
  0
LINE
  8
0
 62
     9
 10
16.1837
 20
12.5677
 30
0.0
 11
16.1837
 21
12.7
 31
0.0
  0
LINE
  8
0
 62
     9
 10
16.1837
 20
12.7
 30
0.0
 11
16.0225
 21
13.0679
 31
0.0
  0
LINE
  8
0
 62
     9
 10
16.0225
 20
13.0679
 30
0.0
 11
15.9907
 21
13.0969
 31
0.0
  0
LINE
  8
0
 62
     9
 10
15.9907
 20
13.0969
 30
0.0
 11
15.9453
 21
13.112
 31
0.0
  0
LINE
  8
0
 62
     9
 10
15.9453
 20
13.112
 30
0.0
 11
15.5525
 21
13.2733
 31
0.0
  0
LINE
  8
0
 62
     9
 10
15.5525
 20
13.2733
 30
0.0
 11
15.423
 21
13.2733
 31
0.0
  0
LINE
  8
0
 62
     9
 10
15.423
 20
13.2733
 30
0.0
 11
14.7726
 21
13.2733
 31
0.0
  0
LINE
  8
0
 62
     231
 10
16.1782
 20
11.5645
 30
0.0
 11
16.2112
 21
11.5535
 31
0.0
  0
LINE
  8
0
 62
     231
 10
16.2112
 20
11.5535
 30
0.0
 11
16.5378
 21
11.3054
 31
0.0
  0
LINE
  8
0
 62
     231
 10
16.5378
 20
11.3054
 30
0.0
 11
16.5695
 21
11.2668
 31
0.0
  0
LINE
  8
0
 62
     231
 10
16.5695
 20
11.2668
 30
0.0
 11
16.6012
 21
11.231
 31
0.0
  0
LINE
  8
0
 62
     231
 10
16.6012
 20
11.231
 30
0.0
 11
16.9223
 21
10.7253
 31
0.0
  0
LINE
  8
0
 62
     231
 10
16.9223
 20
10.7253
 30
0.0
 11
16.9554
 21
10.6605
 31
0.0
  0
LINE
  8
0
 62
     231
 10
16.9554
 20
10.6605
 30
0.0
 11
17.5893
 21
9.39271
 31
0.0
  0
LINE
  8
0
 62
     231
 10
17.5893
 20
9.39271
 30
0.0
 11
16.9168
 21
9.39271
 31
0.0
  0
LINE
  8
0
 62
     231
 10
16.9168
 20
9.39271
 30
0.0
 11
16.327
 21
10.5778
 31
0.0
  0
LINE
  8
0
 62
     231
 10
16.327
 20
10.5778
 30
0.0
 11
16.2884
 21
10.6564
 31
0.0
  0
LINE
  8
0
 62
     231
 10
16.2884
 20
10.6564
 30
0.0
 11
15.9163
 21
11.1704
 31
0.0
  0
LINE
  8
0
 62
     231
 10
15.9163
 20
11.1704
 30
0.0
 11
15.8805
 21
11.1952
 31
0.0
  0
LINE
  8
0
 62
     231
 10
15.8805
 20
11.1952
 30
0.0
 11
15.8447
 21
11.2214
 31
0.0
  0
LINE
  8
0
 62
     231
 10
15.8447
 20
11.2214
 30
0.0
 11
15.4285
 21
11.3495
 31
0.0
  0
LINE
  8
0
 62
     231
 10
15.4285
 20
11.3495
 30
0.0
 11
15.2907
 21
11.3495
 31
0.0
  0
LINE
  8
0
 62
     231
 10
15.2907
 20
11.3495
 30
0.0
 11
14.6127
 21
11.3495
 31
0.0
  0
LINE
  8
0
 62
     231
 10
14.6127
 20
11.3495
 30
0.0
 11
14.6127
 21
9.39271
 31
0.0
  0
LINE
  8
0
 62
     231
 10
14.6127
 20
9.39271
 30
0.0
 11
13.9843
 21
9.39271
 31
0.0
  0
LINE
  8
0
 62
     231
 10
13.9843
 20
9.39271
 30
0.0
 11
13.9843
 21
14.0229
 31
0.0
  0
LINE
  8
0
 62
     231
 10
13.9843
 20
14.0229
 30
0.0
 11
15.401
 21
14.0229
 31
0.0
  0
LINE
  8
0
 62
     231
 10
15.401
 20
14.0229
 30
0.0
 11
15.5732
 21
14.0229
 31
0.0
  0
LINE
  8
0
 62
     231
 10
15.5732
 20
14.0229
 30
0.0
 11
16.0914
 21
13.9388
 31
0.0
  0
LINE
  8
0
 62
     231
 10
16.0914
 20
13.9388
 30
0.0
 11
16.5158
 21
13.7432
 31
0.0
  0
LINE
  8
0
 62
     231
 10
16.5158
 20
13.7432
 30
0.0
 11
16.5806
 21
13.6867
 31
0.0
  0
LINE
  8
0
 62
     231
 10
16.5806
 20
13.6867
 30
0.0
 11
16.6453
 21
13.6315
 31
0.0
  0
LINE
  8
0
 62
     231
 10
16.6453
 20
13.6315
 30
0.0
 11
16.8727
 21
13.2719
 31
0.0
  0
LINE
  8
0
 62
     231
 10
16.8727
 20
13.2719
 30
0.0
 11
16.9719
 21
12.835
 31
0.0
  0
LINE
  8
0
 62
     231
 10
16.9719
 20
12.835
 30
0.0
 11
16.9719
 21
12.689
 31
0.0
  0
LINE
  8
0
 62
     231
 10
16.9719
 20
12.689
 30
0.0
 11
16.9719
 21
12.5071
 31
0.0
  0
LINE
  8
0
 62
     231
 10
16.9719
 20
12.5071
 30
0.0
 11
16.801
 21
12.011
 31
0.0
  0
LINE
  8
0
 62
     231
 10
16.801
 20
12.011
 30
0.0
 11
16.768
 21
11.9614
 31
0.0
  0
LINE
  8
0
 62
     231
 10
16.768
 20
11.9614
 30
0.0
 11
16.7349
 21
11.9145
 31
0.0
  0
LINE
  8
0
 62
     231
 10
16.7349
 20
11.9145
 30
0.0
 11
16.2429
 21
11.5838
 31
0.0
  0
LINE
  8
0
 62
     231
 10
16.2429
 20
11.5838
 30
0.0
 11
16.1782
 21
11.5645
 31
0.0
  0
LINE
  8
0
 62
     231
 10
14.6127
 20
13.5048
 30
0.0
 11
14.6127
 21
11.8622
 31
0.0
  0
LINE
  8
0
 62
     231
 10
14.6127
 20
11.8622
 30
0.0
 11
15.401
 21
11.8622
 31
0.0
  0
LINE
  8
0
 62
     231
 10
15.401
 20
11.8622
 30
0.0
 11
15.5718
 21
11.8622
 31
0.0
  0
LINE
  8
0
 62
     231
 10
15.5718
 20
11.8622
 30
0.0
 11
16.0459
 21
12.0372
 31
0.0
  0
LINE
  8
0
 62
     231
 10
16.0459
 20
12.0372
 30
0.0
 11
16.0845
 21
12.0716
 31
0.0
  0
LINE
  8
0
 62
     231
 10
16.0845
 20
12.0716
 30
0.0
 11
16.123
 21
12.1074
 31
0.0
  0
LINE
  8
0
 62
     231
 10
16.123
 20
12.1074
 30
0.0
 11
16.316
 21
12.5443
 31
0.0
  0
LINE
  8
0
 62
     231
 10
16.316
 20
12.5443
 30
0.0
 11
16.316
 21
12.689
 31
0.0
  0
LINE
  8
0
 62
     231
 10
16.316
 20
12.689
 30
0.0
 11
16.316
 21
12.8419
 31
0.0
  0
LINE
  8
0
 62
     231
 10
16.316
 20
12.8419
 30
0.0
 11
16.123
 21
13.2678
 31
0.0
  0
LINE
  8
0
 62
     231
 10
16.123
 20
13.2678
 30
0.0
 11
16.0845
 21
13.3008
 31
0.0
  0
LINE
  8
0
 62
     231
 10
16.0845
 20
13.3008
 30
0.0
 11
16.0459
 21
13.3353
 31
0.0
  0
LINE
  8
0
 62
     231
 10
16.0459
 20
13.3353
 30
0.0
 11
15.5622
 21
13.5048
 31
0.0
  0
LINE
  8
0
 62
     231
 10
15.5622
 20
13.5048
 30
0.0
 11
15.401
 21
13.5048
 31
0.0
  0
LINE
  8
0
 62
     231
 10
15.401
 20
13.5048
 30
0.0
 11
14.6127
 21
13.5048
 31
0.0
  0
LINE
  8
0
 62
     9
 10
19.6632
 20
10.8038
 30
0.0
 11
19.5392
 21
10.8038
 31
0.0
  0
LINE
  8
0
 62
     9
 10
19.5392
 20
10.8038
 30
0.0
 11
19.1685
 21
10.7831
 31
0.0
  0
LINE
  8
0
 62
     9
 10
19.1685
 20
10.7831
 30
0.0
 11
18.9425
 21
10.7349
 31
0.0
  0
LINE
  8
0
 62
     9
 10
18.9425
 20
10.7349
 30
0.0
 11
18.9081
 21
10.7211
 31
0.0
  0
LINE
  8
0
 62
     9
 10
18.9081
 20
10.7211
 30
0.0
 11
18.8598
 21
10.6881
 31
0.0
  0
LINE
  8
0
 62
     9
 10
18.8598
 20
10.6881
 30
0.0
 11
18.7248
 21
10.5765
 31
0.0
  0
LINE
  8
0
 62
     9
 10
18.7248
 20
10.5765
 30
0.0
 11
18.6986
 21
10.4745
 31
0.0
  0
LINE
  8
0
 62
     9
 10
18.6986
 20
10.4745
 30
0.0
 11
18.6986
 21
10.44
 31
0.0
  0
LINE
  8
0
 62
     9
 10
18.6986
 20
10.44
 30
0.0
 11
18.6986
 21
10.3945
 31
0.0
  0
LINE
  8
0
 62
     9
 10
18.6986
 20
10.3945
 30
0.0
 11
18.7358
 21
10.2581
 31
0.0
  0
LINE
  8
0
 62
     9
 10
18.7358
 20
10.2581
 30
0.0
 11
18.8268
 21
10.2085
 31
0.0
  0
LINE
  8
0
 62
     9
 10
18.8268
 20
10.2085
 30
0.0
 11
18.8529
 21
10.192
 31
0.0
  0
LINE
  8
0
 62
     9
 10
18.8529
 20
10.192
 30
0.0
 11
18.8667
 21
10.1685
 31
0.0
  0
LINE
  8
0
 62
     9
 10
18.8667
 20
10.1685
 30
0.0
 11
19.1782
 21
10.0983
 31
0.0
  0
LINE
  8
0
 62
     9
 10
19.1782
 20
10.0983
 30
0.0
 11
19.2829
 21
10.0983
 31
0.0
  0
LINE
  8
0
 62
     9
 10
19.2829
 20
10.0983
 30
0.0
 11
19.4331
 21
10.0983
 31
0.0
  0
LINE
  8
0
 62
     9
 10
19.4331
 20
10.0983
 30
0.0
 11
19.8451
 21
10.2416
 31
0.0
  0
LINE
  8
0
 62
     9
 10
19.8451
 20
10.2416
 30
0.0
 11
19.8837
 21
10.2691
 31
0.0
  0
LINE
  8
0
 62
     9
 10
19.8837
 20
10.2691
 30
0.0
 11
19.9099
 21
10.2843
 31
0.0
  0
LINE
  8
0
 62
     9
 10
19.9099
 20
10.2843
 30
0.0
 11
20.0367
 21
10.4524
 31
0.0
  0
LINE
  8
0
 62
     9
 10
20.0367
 20
10.4524
 30
0.0
 11
20.1097
 21
10.6633
 31
0.0
  0
LINE
  8
0
 62
     9
 10
20.1097
 20
10.6633
 30
0.0
 11
20.1097
 21
10.7322
 31
0.0
  0
LINE
  8
0
 62
     9
 10
20.1097
 20
10.7322
 30
0.0
 11
20.1097
 21
10.8038
 31
0.0
  0
LINE
  8
0
 62
     9
 10
20.1097
 20
10.8038
 30
0.0
 11
19.6632
 21
10.8038
 31
0.0
  0
LINE
  8
0
 62
     9
 10
20.8153
 20
11.1786
 30
0.0
 11
20.8153
 21
9.39271
 31
0.0
  0
LINE
  8
0
 62
     9
 10
20.8153
 20
9.39271
 30
0.0
 11
20.1097
 21
9.39271
 31
0.0
  0
LINE
  8
0
 62
     9
 10
20.1097
 20
9.39271
 30
0.0
 11
20.1097
 21
10.0983
 31
0.0
  0
LINE
  8
0
 62
     9
 10
20.1097
 20
10.0983
 30
0.0
 11
20.0794
 21
10.0376
 31
0.0
  0
LINE
  8
0
 62
     9
 10
20.0794
 20
10.0376
 30
0.0
 11
19.717
 21
9.59252
 31
0.0
  0
LINE
  8
0
 62
     9
 10
19.717
 20
9.59252
 30
0.0
 11
19.6742
 21
9.56359
 31
0.0
  0
LINE
  8
0
 62
     9
 10
19.6742
 20
9.56359
 30
0.0
 11
19.6081
 21
9.52087
 31
0.0
  0
LINE
  8
0
 62
     9
 10
19.6081
 20
9.52087
 30
0.0
 11
19.3504
 21
9.41476
 31
0.0
  0
LINE
  8
0
 62
     9
 10
19.3504
 20
9.41476
 30
0.0
 11
19.1134
 21
9.39271
 31
0.0
  0
LINE
  8
0
 62
     9
 10
19.1134
 20
9.39271
 30
0.0
 11
19.0348
 21
9.39271
 31
0.0
  0
LINE
  8
0
 62
     9
 10
19.0348
 20
9.39271
 30
0.0
 11
18.9163
 21
9.39271
 31
0.0
  0
LINE
  8
0
 62
     9
 10
18.9163
 20
9.39271
 30
0.0
 11
18.5622
 21
9.46161
 31
0.0
  0
LINE
  8
0
 62
     9
 10
18.5622
 20
9.46161
 30
0.0
 11
18.321
 21
9.62283
 31
0.0
  0
LINE
  8
0
 62
     9
 10
18.321
 20
9.62283
 30
0.0
 11
18.2742
 21
9.66833
 31
0.0
  0
LINE
  8
0
 62
     9
 10
18.2742
 20
9.66833
 30
0.0
 11
18.2039
 21
9.69313
 31
0.0
  0
LINE
  8
0
 62
     9
 10
18.2039
 20
9.69313
 30
0.0
 11
18.0275
 21
9.96047
 31
0.0
  0
LINE
  8
0
 62
     9
 10
18.0275
 20
9.96047
 30
0.0
 11
17.993
 21
10.2995
 31
0.0
  0
LINE
  8
0
 62
     9
 10
17.993
 20
10.2995
 30
0.0
 11
17.993
 21
10.4124
 31
0.0
  0
LINE
  8
0
 62
     9
 10
17.993
 20
10.4124
 30
0.0
 11
17.993
 21
10.5227
 31
0.0
  0
LINE
  8
0
 62
     9
 10
17.993
 20
10.5227
 30
0.0
 11
18.0854
 21
10.852
 31
0.0
  0
LINE
  8
0
 62
     9
 10
18.0854
 20
10.852
 30
0.0
 11
18.3045
 21
11.1883
 31
0.0
  0
LINE
  8
0
 62
     9
 10
18.3045
 20
11.1883
 30
0.0
 11
18.3679
 21
11.2338
 31
0.0
  0
LINE
  8
0
 62
     9
 10
18.3679
 20
11.2338
 30
0.0
 11
18.4285
 21
11.2737
 31
0.0
  0
LINE
  8
0
 62
     9
 10
18.4285
 20
11.2737
 30
0.0
 11
18.8295
 21
11.4308
 31
0.0
  0
LINE
  8
0
 62
     9
 10
18.8295
 20
11.4308
 30
0.0
 11
19.3173
 21
11.5094
 31
0.0
  0
LINE
  8
0
 62
     9
 10
19.3173
 20
11.5094
 30
0.0
 11
19.4813
 21
11.5094
 31
0.0
  0
LINE
  8
0
 62
     9
 10
19.4813
 20
11.5094
 30
0.0
 11
20.1097
 21
11.5094
 31
0.0
  0
LINE
  8
0
 62
     9
 10
20.1097
 20
11.5094
 30
0.0
 11
20.1097
 21
11.5425
 31
0.0
  0
LINE
  8
0
 62
     9
 10
20.1097
 20
11.5425
 30
0.0
 11
20.1097
 21
11.6665
 31
0.0
  0
LINE
  8
0
 62
     9
 10
20.1097
 20
11.6665
 30
0.0
 11
19.9251
 21
12.0096
 31
0.0
  0
LINE
  8
0
 62
     9
 10
19.9251
 20
12.0096
 30
0.0
 11
19.8892
 21
12.0385
 31
0.0
  0
LINE
  8
0
 62
     9
 10
19.8892
 20
12.0385
 30
0.0
 11
19.8424
 21
12.0537
 31
0.0
  0
LINE
  8
0
 62
     9
 10
19.8424
 20
12.0537
 30
0.0
 11
19.4221
 21
12.2149
 31
0.0
  0
LINE
  8
0
 62
     9
 10
19.4221
 20
12.2149
 30
0.0
 11
19.2829
 21
12.2149
 31
0.0
  0
LINE
  8
0
 62
     9
 10
19.2829
 20
12.2149
 30
0.0
 11
19.1616
 21
12.2149
 31
0.0
  0
LINE
  8
0
 62
     9
 10
19.1616
 20
12.2149
 30
0.0
 11
18.8364
 21
12.1419
 31
0.0
  0
LINE
  8
0
 62
     9
 10
18.8364
 20
12.1419
 30
0.0
 11
18.7978
 21
12.1267
 31
0.0
  0
LINE
  8
0
 62
     9
 10
18.7978
 20
12.1267
 30
0.0
 11
18.751
 21
12.0909
 31
0.0
  0
LINE
  8
0
 62
     9
 10
18.751
 20
12.0909
 30
0.0
 11
18.3817
 21
11.8925
 31
0.0
  0
LINE
  8
0
 62
     9
 10
18.3817
 20
11.8925
 30
0.0
 11
18.3458
 21
11.8622
 31
0.0
  0
LINE
  8
0
 62
     9
 10
18.3458
 20
11.8622
 30
0.0
 11
18.3458
 21
12.5677
 31
0.0
  0
LINE
  8
0
 62
     9
 10
18.3458
 20
12.5677
 30
0.0
 11
18.3927
 21
12.598
 31
0.0
  0
LINE
  8
0
 62
     9
 10
18.3927
 20
12.598
 30
0.0
 11
18.8571
 21
12.8185
 31
0.0
  0
LINE
  8
0
 62
     9
 10
18.8571
 20
12.8185
 30
0.0
 11
18.9025
 21
12.8323
 31
0.0
  0
LINE
  8
0
 62
     9
 10
18.9025
 20
12.8323
 30
0.0
 11
18.9315
 21
12.8254
 31
0.0
  0
LINE
  8
0
 62
     9
 10
18.9315
 20
12.8254
 30
0.0
 11
19.1478
 21
12.8654
 31
0.0
  0
LINE
  8
0
 62
     9
 10
19.1478
 20
12.8654
 30
0.0
 11
19.3642
 21
12.9205
 31
0.0
  0
LINE
  8
0
 62
     9
 10
19.3642
 20
12.9205
 30
0.0
 11
19.4372
 21
12.9205
 31
0.0
  0
LINE
  8
0
 62
     9
 10
19.4372
 20
12.9205
 30
0.0
 11
19.5874
 21
12.9205
 31
0.0
  0
LINE
  8
0
 62
     9
 10
19.5874
 20
12.9205
 30
0.0
 11
20.0381
 21
12.8116
 31
0.0
  0
LINE
  8
0
 62
     9
 10
20.0381
 20
12.8116
 30
0.0
 11
20.4156
 21
12.5581
 31
0.0
  0
LINE
  8
0
 62
     9
 10
20.4156
 20
12.5581
 30
0.0
 11
20.4735
 21
12.485
 31
0.0
  0
LINE
  8
0
 62
     9
 10
20.4735
 20
12.485
 30
0.0
 11
20.5286
 21
12.3913
 31
0.0
  0
LINE
  8
0
 62
     9
 10
20.5286
 20
12.3913
 30
0.0
 11
20.7271
 21
11.9104
 31
0.0
  0
LINE
  8
0
 62
     9
 10
20.7271
 20
11.9104
 30
0.0
 11
20.8153
 21
11.3619
 31
0.0
  0
LINE
  8
0
 62
     9
 10
20.8153
 20
11.3619
 30
0.0
 11
20.8153
 21
11.1786
 31
0.0
  0
LINE
  8
0
 62
     231
 10
19.8176
 20
11.1401
 30
0.0
 11
19.5778
 21
11.1401
 31
0.0
  0
LINE
  8
0
 62
     231
 10
19.5778
 20
11.1401
 30
0.0
 11
18.9025
 21
11.0078
 31
0.0
  0
LINE
  8
0
 62
     231
 10
18.9025
 20
11.0078
 30
0.0
 11
18.8584
 21
10.9802
 31
0.0
  0
LINE
  8
0
 62
     231
 10
18.8584
 20
10.9802
 30
0.0
 11
18.8143
 21
10.954
 31
0.0
  0
LINE
  8
0
 62
     231
 10
18.8143
 20
10.954
 30
0.0
 11
18.5939
 21
10.5695
 31
0.0
  0
LINE
  8
0
 62
     231
 10
18.5939
 20
10.5695
 30
0.0
 11
18.5939
 21
10.44
 31
0.0
  0
LINE
  8
0
 62
     231
 10
18.5939
 20
10.44
 30
0.0
 11
18.5939
 21
10.3188
 31
0.0
  0
LINE
  8
0
 62
     231
 10
18.5939
 20
10.3188
 30
0.0
 11
18.7592
 21
9.98527
 31
0.0
  0
LINE
  8
0
 62
     231
 10
18.7592
 20
9.98527
 30
0.0
 11
18.7923
 21
9.95497
 31
0.0
  0
LINE
  8
0
 62
     231
 10
18.7923
 20
9.95497
 30
0.0
 11
18.8254
 21
9.926
 31
0.0
  0
LINE
  8
0
 62
     231
 10
18.8254
 20
9.926
 30
0.0
 11
19.2098
 21
9.77858
 31
0.0
  0
LINE
  8
0
 62
     231
 10
19.2098
 20
9.77858
 30
0.0
 11
19.338
 21
9.77858
 31
0.0
  0
LINE
  8
0
 62
     231
 10
19.338
 20
9.77858
 30
0.0
 11
19.5282
 21
9.77858
 31
0.0
  0
LINE
  8
0
 62
     231
 10
19.5282
 20
9.77858
 30
0.0
 11
20.0504
 21
10.0597
 31
0.0
  0
LINE
  8
0
 62
     231
 10
20.0504
 20
10.0597
 30
0.0
 11
20.0987
 21
10.1148
 31
0.0
  0
LINE
  8
0
 62
     231
 10
20.0987
 20
10.1148
 30
0.0
 11
20.1456
 21
10.1713
 31
0.0
  0
LINE
  8
0
 62
     231
 10
20.1456
 20
10.1713
 30
0.0
 11
20.3853
 21
10.8038
 31
0.0
  0
LINE
  8
0
 62
     231
 10
20.3853
 20
10.8038
 30
0.0
 11
20.3853
 21
11.0133
 31
0.0
  0
LINE
  8
0
 62
     231
 10
20.3853
 20
11.0133
 30
0.0
 11
20.3853
 21
11.1401
 31
0.0
  0
LINE
  8
0
 62
     231
 10
20.3853
 20
11.1401
 30
0.0
 11
19.8176
 21
11.1401
 31
0.0
  0
LINE
  8
0
 62
     231
 10
20.9531
 20
11.3716
 30
0.0
 11
20.9531
 21
9.39271
 31
0.0
  0
LINE
  8
0
 62
     231
 10
20.9531
 20
9.39271
 30
0.0
 11
20.3853
 21
9.39271
 31
0.0
  0
LINE
  8
0
 62
     231
 10
20.3853
 20
9.39271
 30
0.0
 11
20.3853
 21
9.92188
 31
0.0
  0
LINE
  8
0
 62
     231
 10
20.3853
 20
9.92188
 30
0.0
 11
20.3522
 21
9.86952
 31
0.0
  0
LINE
  8
0
 62
     231
 10
20.3522
 20
9.86952
 30
0.0
 11
19.943
 21
9.47815
 31
0.0
  0
LINE
  8
0
 62
     231
 10
19.943
 20
9.47815
 30
0.0
 11
19.8947
 21
9.45335
 31
0.0
  0
LINE
  8
0
 62
     231
 10
19.8947
 20
9.45335
 30
0.0
 11
19.8465
 21
9.42855
 31
0.0
  0
LINE
  8
0
 62
     231
 10
19.8465
 20
9.42855
 30
0.0
 11
19.349
 21
9.30451
 31
0.0
  0
LINE
  8
0
 62
     231
 10
19.349
 20
9.30451
 30
0.0
 11
19.1837
 21
9.30451
 31
0.0
  0
LINE
  8
0
 62
     231
 10
19.1837
 20
9.30451
 30
0.0
 11
18.9714
 21
9.30451
 31
0.0
  0
LINE
  8
0
 62
     231
 10
18.9714
 20
9.30451
 30
0.0
 11
18.3872
 21
9.55255
 31
0.0
  0
LINE
  8
0
 62
     231
 10
18.3872
 20
9.55255
 30
0.0
 11
18.3348
 21
9.60219
 31
0.0
  0
LINE
  8
0
 62
     231
 10
18.3348
 20
9.60219
 30
0.0
 11
18.2824
 21
9.65179
 31
0.0
  0
LINE
  8
0
 62
     231
 10
18.2824
 20
9.65179
 30
0.0
 11
18.0206
 21
10.214
 31
0.0
  0
LINE
  8
0
 62
     231
 10
18.0206
 20
10.214
 30
0.0
 11
18.0206
 21
10.4014
 31
0.0
  0
LINE
  8
0
 62
     231
 10
18.0206
 20
10.4014
 30
0.0
 11
18.0206
 21
10.6233
 31
0.0
  0
LINE
  8
0
 62
     231
 10
18.0206
 20
10.6233
 30
0.0
 11
18.3458
 21
11.2393
 31
0.0
  0
LINE
  8
0
 62
     231
 10
18.3458
 20
11.2393
 30
0.0
 11
18.412
 21
11.2889
 31
0.0
  0
LINE
  8
0
 62
     231
 10
18.412
 20
11.2889
 30
0.0
 11
18.4781
 21
11.3385
 31
0.0
  0
LINE
  8
0
 62
     231
 10
18.4781
 20
11.3385
 30
0.0
 11
19.3091
 21
11.5866
 31
0.0
  0
LINE
  8
0
 62
     231
 10
19.3091
 20
11.5866
 30
0.0
 11
19.586
 21
11.5866
 31
0.0
  0
LINE
  8
0
 62
     231
 10
19.586
 20
11.5866
 30
0.0
 11
20.3853
 21
11.5866
 31
0.0
  0
LINE
  8
0
 62
     231
 10
20.3853
 20
11.5866
 30
0.0
 11
20.3853
 21
11.6417
 31
0.0
  0
LINE
  8
0
 62
     231
 10
20.3853
 20
11.6417
 30
0.0
 11
20.3853
 21
11.7933
 31
0.0
  0
LINE
  8
0
 62
     231
 10
20.3853
 20
11.7933
 30
0.0
 11
20.169
 21
12.2122
 31
0.0
  0
LINE
  8
0
 62
     231
 10
20.169
 20
12.2122
 30
0.0
 11
20.1263
 21
12.248
 31
0.0
  0
LINE
  8
0
 62
     231
 10
20.1263
 20
12.248
 30
0.0
 11
20.0822
 21
12.2838
 31
0.0
  0
LINE
  8
0
 62
     231
 10
20.0822
 20
12.2838
 30
0.0
 11
19.5695
 21
12.463
 31
0.0
  0
LINE
  8
0
 62
     231
 10
19.5695
 20
12.463
 30
0.0
 11
19.3987
 21
12.463
 31
0.0
  0
LINE
  8
0
 62
     231
 10
19.3987
 20
12.463
 30
0.0
 11
19.2539
 21
12.463
 31
0.0
  0
LINE
  8
0
 62
     231
 10
19.2539
 20
12.463
 30
0.0
 11
18.8667
 21
12.4037
 31
0.0
  0
LINE
  8
0
 62
     231
 10
18.8667
 20
12.4037
 30
0.0
 11
18.8199
 21
12.3913
 31
0.0
  0
LINE
  8
0
 62
     231
 10
18.8199
 20
12.3913
 30
0.0
 11
18.773
 21
12.3803
 31
0.0
  0
LINE
  8
0
 62
     231
 10
18.773
 20
12.3803
 30
0.0
 11
18.3183
 21
12.2067
 31
0.0
  0
LINE
  8
0
 62
     231
 10
18.3183
 20
12.2067
 30
0.0
 11
18.2742
 21
12.1819
 31
0.0
  0
LINE
  8
0
 62
     231
 10
18.2742
 20
12.1819
 30
0.0
 11
18.2742
 21
12.7055
 31
0.0
  0
LINE
  8
0
 62
     231
 10
18.2742
 20
12.7055
 30
0.0
 11
18.3265
 21
12.7262
 31
0.0
  0
LINE
  8
0
 62
     231
 10
18.3265
 20
12.7262
 30
0.0
 11
18.8309
 21
12.8778
 31
0.0
  0
LINE
  8
0
 62
     231
 10
18.8309
 20
12.8778
 30
0.0
 11
18.8805
 21
12.8874
 31
0.0
  0
LINE
  8
0
 62
     231
 10
18.8805
 20
12.8874
 30
0.0
 11
18.9301
 21
12.8984
 31
0.0
  0
LINE
  8
0
 62
     231
 10
18.9301
 20
12.8984
 30
0.0
 11
19.327
 21
12.948
 31
0.0
  0
LINE
  8
0
 62
     231
 10
19.327
 20
12.948
 30
0.0
 11
19.4593
 21
12.948
 31
0.0
  0
LINE
  8
0
 62
     231
 10
19.4593
 20
12.948
 30
0.0
 11
19.6219
 21
12.948
 31
0.0
  0
LINE
  8
0
 62
     231
 10
19.6219
 20
12.948
 30
0.0
 11
20.1125
 21
12.8502
 31
0.0
  0
LINE
  8
0
 62
     231
 10
20.1125
 20
12.8502
 30
0.0
 11
20.5163
 21
12.6228
 31
0.0
  0
LINE
  8
0
 62
     231
 10
20.5163
 20
12.6228
 30
0.0
 11
20.5782
 21
12.5567
 31
0.0
  0
LINE
  8
0
 62
     231
 10
20.5782
 20
12.5567
 30
0.0
 11
20.6403
 21
12.4919
 31
0.0
  0
LINE
  8
0
 62
     231
 10
20.6403
 20
12.4919
 30
0.0
 11
20.858
 21
12.0647
 31
0.0
  0
LINE
  8
0
 62
     231
 10
20.858
 20
12.0647
 30
0.0
 11
20.9531
 21
11.5452
 31
0.0
  0
LINE
  8
0
 62
     231
 10
20.9531
 20
11.5452
 30
0.0
 11
20.9531
 21
11.3716
 31
0.0
  0
LINE
  8
0
 62
     9
 10
25.0624
 20
11.4102
 30
0.0
 11
25.0624
 21
9.39271
 31
0.0
  0
LINE
  8
0
 62
     9
 10
25.0624
 20
9.39271
 30
0.0
 11
24.3568
 21
9.39271
 31
0.0
  0
LINE
  8
0
 62
     9
 10
24.3568
 20
9.39271
 30
0.0
 11
24.3568
 21
11.3936
 31
0.0
  0
LINE
  8
0
 62
     9
 10
24.3568
 20
11.3936
 30
0.0
 11
24.3568
 21
11.548
 31
0.0
  0
LINE
  8
0
 62
     9
 10
24.3568
 20
11.548
 30
0.0
 11
24.2273
 21
11.9779
 31
0.0
  0
LINE
  8
0
 62
     9
 10
24.2273
 20
11.9779
 30
0.0
 11
24.2025
 21
12.011
 31
0.0
  0
LINE
  8
0
 62
     9
 10
24.2025
 20
12.011
 30
0.0
 11
24.1598
 21
12.033
 31
0.0
  0
LINE
  8
0
 62
     9
 10
24.1598
 20
12.033
 30
0.0
 11
23.9834
 21
12.146
 31
0.0
  0
LINE
  8
0
 62
     9
 10
23.9834
 20
12.146
 30
0.0
 11
23.8001
 21
12.2149
 31
0.0
  0
LINE
  8
0
 62
     9
 10
23.8001
 20
12.2149
 30
0.0
 11
23.7395
 21
12.2149
 31
0.0
  0
LINE
  8
0
 62
     9
 10
23.7395
 20
12.2149
 30
0.0
 11
23.5934
 21
12.2149
 31
0.0
  0
LINE
  8
0
 62
     9
 10
23.5934
 20
12.2149
 30
0.0
 11
23.191
 21
12.0041
 31
0.0
  0
LINE
  8
0
 62
     9
 10
23.191
 20
12.0041
 30
0.0
 11
23.1552
 21
11.9614
 31
0.0
  0
LINE
  8
0
 62
     9
 10
23.1552
 20
11.9614
 30
0.0
 11
23.1028
 21
11.9118
 31
0.0
  0
LINE
  8
0
 62
     9
 10
23.1028
 20
11.9118
 30
0.0
 11
22.9719
 21
11.6555
 31
0.0
  0
LINE
  8
0
 62
     9
 10
22.9719
 20
11.6555
 30
0.0
 11
22.9457
 21
11.3771
 31
0.0
  0
LINE
  8
0
 62
     9
 10
22.9457
 20
11.3771
 30
0.0
 11
22.9457
 21
11.2834
 31
0.0
  0
LINE
  8
0
 62
     9
 10
22.9457
 20
11.2834
 30
0.0
 11
22.9457
 21
9.39271
 31
0.0
  0
LINE
  8
0
 62
     9
 10
22.9457
 20
9.39271
 30
0.0
 11
22.2402
 21
9.39271
 31
0.0
  0
LINE
  8
0
 62
     9
 10
22.2402
 20
9.39271
 30
0.0
 11
22.2402
 21
12.9205
 31
0.0
  0
LINE
  8
0
 62
     9
 10
22.2402
 20
12.9205
 30
0.0
 11
22.9457
 21
12.9205
 31
0.0
  0
LINE
  8
0
 62
     9
 10
22.9457
 20
12.9205
 30
0.0
 11
22.9457
 21
12.2149
 31
0.0
  0
LINE
  8
0
 62
     9
 10
22.9457
 20
12.2149
 30
0.0
 11
22.976
 21
12.2742
 31
0.0
  0
LINE
  8
0
 62
     9
 10
22.976
 20
12.2742
 30
0.0
 11
23.3398
 21
12.7152
 31
0.0
  0
LINE
  8
0
 62
     9
 10
23.3398
 20
12.7152
 30
0.0
 11
23.3812
 21
12.7441
 31
0.0
  0
LINE
  8
0
 62
     9
 10
23.3812
 20
12.7441
 30
0.0
 11
23.4156
 21
12.7593
 31
0.0
  0
LINE
  8
0
 62
     9
 10
23.4156
 20
12.7593
 30
0.0
 11
23.8277
 21
12.9205
 31
0.0
  0
LINE
  8
0
 62
     9
 10
23.8277
 20
12.9205
 30
0.0
 11
23.9655
 21
12.9205
 31
0.0
  0
LINE
  8
0
 62
     9
 10
23.9655
 20
12.9205
 30
0.0
 11
24.073
 21
12.9205
 31
0.0
  0
LINE
  8
0
 62
     9
 10
24.073
 20
12.9205
 30
0.0
 11
24.3996
 21
12.824
 31
0.0
  0
LINE
  8
0
 62
     9
 10
24.3996
 20
12.824
 30
0.0
 11
24.7344
 21
12.5994
 31
0.0
  0
LINE
  8
0
 62
     9
 10
24.7344
 20
12.5994
 30
0.0
 11
24.7813
 21
12.5347
 31
0.0
  0
LINE
  8
0
 62
     9
 10
24.7813
 20
12.5347
 30
0.0
 11
24.8212
 21
12.445
 31
0.0
  0
LINE
  8
0
 62
     9
 10
24.8212
 20
12.445
 30
0.0
 11
24.9825
 21
12.0234
 31
0.0
  0
LINE
  8
0
 62
     9
 10
24.9825
 20
12.0234
 30
0.0
 11
25.0624
 21
11.5645
 31
0.0
  0
LINE
  8
0
 62
     9
 10
25.0624
 20
11.5645
 30
0.0
 11
25.0624
 21
11.4102
 31
0.0
  0
LINE
  8
0
 62
     231
 10
25.0183
 20
11.4873
 30
0.0
 11
25.0183
 21
9.39271
 31
0.0
  0
LINE
  8
0
 62
     231
 10
25.0183
 20
9.39271
 30
0.0
 11
24.4505
 21
9.39271
 31
0.0
  0
LINE
  8
0
 62
     231
 10
24.4505
 20
9.39271
 30
0.0
 11
24.4505
 21
11.4708
 31
0.0
  0
LINE
  8
0
 62
     231
 10
24.4505
 20
11.4708
 30
0.0
 11
24.4505
 21
11.6541
 31
0.0
  0
LINE
  8
0
 62
     231
 10
24.4505
 20
11.6541
 30
0.0
 11
24.2893
 21
12.164
 31
0.0
  0
LINE
  8
0
 62
     231
 10
24.2893
 20
12.164
 30
0.0
 11
24.2576
 21
12.2039
 31
0.0
  0
LINE
  8
0
 62
     231
 10
24.2576
 20
12.2039
 30
0.0
 11
24.2245
 21
12.2452
 31
0.0
  0
LINE
  8
0
 62
     231
 10
24.2245
 20
12.2452
 30
0.0
 11
23.8153
 21
12.452
 31
0.0
  0
LINE
  8
0
 62
     231
 10
23.8153
 20
12.452
 30
0.0
 11
23.6788
 21
12.452
 31
0.0
  0
LINE
  8
0
 62
     231
 10
23.6788
 20
12.452
 30
0.0
 11
23.4969
 21
12.452
 31
0.0
  0
LINE
  8
0
 62
     231
 10
23.4969
 20
12.452
 30
0.0
 11
22.9953
 21
12.2039
 31
0.0
  0
LINE
  8
0
 62
     231
 10
22.9953
 20
12.2039
 30
0.0
 11
22.9512
 21
12.1543
 31
0.0
  0
LINE
  8
0
 62
     231
 10
22.9512
 20
12.1543
 30
0.0
 11
22.9071
 21
12.1061
 31
0.0
  0
LINE
  8
0
 62
     231
 10
22.9071
 20
12.1061
 30
0.0
 11
22.6866
 21
11.5438
 31
0.0
  0
LINE
  8
0
 62
     231
 10
22.6866
 20
11.5438
 30
0.0
 11
22.6866
 21
11.355
 31
0.0
  0
LINE
  8
0
 62
     231
 10
22.6866
 20
11.355
 30
0.0
 11
22.6866
 21
9.39271
 31
0.0
  0
LINE
  8
0
 62
     231
 10
22.6866
 20
9.39271
 30
0.0
 11
22.1134
 21
9.39271
 31
0.0
  0
LINE
  8
0
 62
     231
 10
22.1134
 20
9.39271
 30
0.0
 11
22.1134
 21
12.8654
 31
0.0
  0
LINE
  8
0
 62
     231
 10
22.1134
 20
12.8654
 30
0.0
 11
22.6866
 21
12.8654
 31
0.0
  0
LINE
  8
0
 62
     231
 10
22.6866
 20
12.8654
 30
0.0
 11
22.6866
 21
12.3252
 31
0.0
  0
LINE
  8
0
 62
     231
 10
22.6866
 20
12.3252
 30
0.0
 11
22.7197
 21
12.3775
 31
0.0
  0
LINE
  8
0
 62
     231
 10
22.7197
 20
12.3775
 30
0.0
 11
23.1194
 21
12.7689
 31
0.0
  0
LINE
  8
0
 62
     231
 10
23.1194
 20
12.7689
 30
0.0
 11
23.1662
 21
12.7937
 31
0.0
  0
LINE
  8
0
 62
     231
 10
23.1662
 20
12.7937
 30
0.0
 11
23.2131
 21
12.8199
 31
0.0
  0
LINE
  8
0
 62
     231
 10
23.2131
 20
12.8199
 30
0.0
 11
23.6568
 21
12.948
 31
0.0
  0
LINE
  8
0
 62
     231
 10
23.6568
 20
12.948
 30
0.0
 11
23.8056
 21
12.948
 31
0.0
  0
LINE
  8
0
 62
     231
 10
23.8056
 20
12.948
 30
0.0
 11
24.0316
 21
12.948
 31
0.0
  0
LINE
  8
0
 62
     231
 10
24.0316
 20
12.948
 30
0.0
 11
24.6586
 21
12.6407
 31
0.0
  0
LINE
  8
0
 62
     231
 10
24.6586
 20
12.6407
 30
0.0
 11
24.7096
 21
12.5788
 31
0.0
  0
LINE
  8
0
 62
     231
 10
24.7096
 20
12.5788
 30
0.0
 11
24.7606
 21
12.5181
 31
0.0
  0
LINE
  8
0
 62
     231
 10
24.7606
 20
12.5181
 30
0.0
 11
25.0183
 21
11.745
 31
0.0
  0
LINE
  8
0
 62
     231
 10
25.0183
 20
11.745
 30
0.0
 11
25.0183
 21
11.4873
 31
0.0
  0
LINE
  8
0
 62
     9
 10
28.3876
 20
12.2149
 30
0.0
 11
28.3876
 21
14.3316
 31
0.0
  0
LINE
  8
0
 62
     9
 10
28.3876
 20
14.3316
 30
0.0
 11
29.0932
 21
14.3316
 31
0.0
  0
LINE
  8
0
 62
     9
 10
29.0932
 20
14.3316
 30
0.0
 11
29.0932
 21
9.39271
 31
0.0
  0
LINE
  8
0
 62
     9
 10
29.0932
 20
9.39271
 30
0.0
 11
28.3876
 21
9.39271
 31
0.0
  0
LINE
  8
0
 62
     9
 10
28.3876
 20
9.39271
 30
0.0
 11
28.3876
 21
10.0983
 31
0.0
  0
LINE
  8
0
 62
     9
 10
28.3876
 20
10.0983
 30
0.0
 11
28.3573
 21
10.039
 31
0.0
  0
LINE
  8
0
 62
     9
 10
28.3573
 20
10.039
 30
0.0
 11
27.9852
 21
9.5939
 31
0.0
  0
LINE
  8
0
 62
     9
 10
27.9852
 20
9.5939
 30
0.0
 11
27.9411
 21
9.56359
 31
0.0
  0
LINE
  8
0
 62
     9
 10
27.9411
 20
9.56359
 30
0.0
 11
27.8749
 21
9.52087
 31
0.0
  0
LINE
  8
0
 62
     9
 10
27.8749
 20
9.52087
 30
0.0
 11
27.6159
 21
9.41476
 31
0.0
  0
LINE
  8
0
 62
     9
 10
27.6159
 20
9.41476
 30
0.0
 11
27.3802
 21
9.39271
 31
0.0
  0
LINE
  8
0
 62
     9
 10
27.3802
 20
9.39271
 30
0.0
 11
27.3017
 21
9.39271
 31
0.0
  0
LINE
  8
0
 62
     9
 10
27.3017
 20
9.39271
 30
0.0
 11
27.1515
 21
9.39271
 31
0.0
  0
LINE
  8
0
 62
     9
 10
27.1515
 20
9.39271
 30
0.0
 11
26.705
 21
9.51399
 31
0.0
  0
LINE
  8
0
 62
     9
 10
26.705
 20
9.51399
 30
0.0
 11
26.3674
 21
9.79784
 31
0.0
  0
LINE
  8
0
 62
     9
 10
26.3674
 20
9.79784
 30
0.0
 11
26.304
 21
9.87778
 31
0.0
  0
LINE
  8
0
 62
     9
 10
26.304
 20
9.87778
 30
0.0
 11
26.2365
 21
9.94805
 31
0.0
  0
LINE
  8
0
 62
     9
 10
26.2365
 20
9.94805
 30
0.0
 11
26.0091
 21
10.4235
 31
0.0
  0
LINE
  8
0
 62
     9
 10
26.0091
 20
10.4235
 30
0.0
 11
25.9182
 21
10.9733
 31
0.0
  0
LINE
  8
0
 62
     9
 10
25.9182
 20
10.9733
 30
0.0
 11
25.9182
 21
11.1566
 31
0.0
  0
LINE
  8
0
 62
     9
 10
25.9182
 20
11.1566
 30
0.0
 11
25.9182
 21
11.4763
 31
0.0
  0
LINE
  8
0
 62
     9
 10
25.9182
 20
11.4763
 30
0.0
 11
26.2392
 21
12.3555
 31
0.0
  0
LINE
  8
0
 62
     9
 10
26.2392
 20
12.3555
 30
0.0
 11
26.304
 21
12.4354
 31
0.0
  0
LINE
  8
0
 62
     9
 10
26.304
 20
12.4354
 30
0.0
 11
26.3646
 21
12.4988
 31
0.0
  0
LINE
  8
0
 62
     9
 10
26.3646
 20
12.4988
 30
0.0
 11
26.7408
 21
12.7716
 31
0.0
  0
LINE
  8
0
 62
     9
 10
26.7408
 20
12.7716
 30
0.0
 11
27.1611
 21
12.9205
 31
0.0
  0
LINE
  8
0
 62
     9
 10
27.1611
 20
12.9205
 30
0.0
 11
27.3017
 21
12.9205
 31
0.0
  0
LINE
  8
0
 62
     9
 10
27.3017
 20
12.9205
 30
0.0
 11
27.3775
 21
12.9205
 31
0.0
  0
LINE
  8
0
 62
     9
 10
27.3775
 20
12.9205
 30
0.0
 11
27.6076
 21
12.8764
 31
0.0
  0
LINE
  8
0
 62
     9
 10
27.6076
 20
12.8764
 30
0.0
 11
27.897
 21
12.7744
 31
0.0
  0
LINE
  8
0
 62
     9
 10
27.897
 20
12.7744
 30
0.0
 11
27.9411
 21
12.7441
 31
0.0
  0
LINE
  8
0
 62
     9
 10
27.9411
 20
12.7441
 30
0.0
 11
27.9645
 21
12.7014
 31
0.0
  0
LINE
  8
0
 62
     9
 10
27.9645
 20
12.7014
 30
0.0
 11
28.1547
 21
12.5043
 31
0.0
  0
LINE
  8
0
 62
     9
 10
28.1547
 20
12.5043
 30
0.0
 11
28.3573
 21
12.2756
 31
0.0
  0
LINE
  8
0
 62
     9
 10
28.3573
 20
12.2756
 30
0.0
 11
28.3876
 21
12.2149
 31
0.0
  0
LINE
  8
0
 62
     9
 10
26.6237
 20
11.1566
 30
0.0
 11
26.6237
 21
10.9623
 31
0.0
  0
LINE
  8
0
 62
     9
 10
26.6237
 20
10.9623
 30
0.0
 11
26.8166
 21
10.4262
 31
0.0
  0
LINE
  8
0
 62
     9
 10
26.8166
 20
10.4262
 30
0.0
 11
26.8552
 21
10.3794
 31
0.0
  0
LINE
  8
0
 62
     9
 10
26.8552
 20
10.3794
 30
0.0
 11
26.8745
 21
10.3091
 31
0.0
  0
LINE
  8
0
 62
     9
 10
26.8745
 20
10.3091
 30
0.0
 11
27.106
 21
10.1341
 31
0.0
  0
LINE
  8
0
 62
     9
 10
27.106
 20
10.1341
 30
0.0
 11
27.405
 21
10.0983
 31
0.0
  0
LINE
  8
0
 62
     9
 10
27.405
 20
10.0983
 30
0.0
 11
27.5057
 21
10.0983
 31
0.0
  0
LINE
  8
0
 62
     9
 10
27.5057
 20
10.0983
 30
0.0
 11
27.6669
 21
10.0983
 31
0.0
  0
LINE
  8
0
 62
     9
 10
27.6669
 20
10.0983
 30
0.0
 11
28.1106
 21
10.3325
 31
0.0
  0
LINE
  8
0
 62
     9
 10
28.1106
 20
10.3325
 30
0.0
 11
28.1506
 21
10.3794
 31
0.0
  0
LINE
  8
0
 62
     9
 10
28.1506
 20
10.3794
 30
0.0
 11
28.1795
 21
10.4028
 31
0.0
  0
LINE
  8
0
 62
     9
 10
28.1795
 20
10.4028
 30
0.0
 11
28.3132
 21
10.6798
 31
0.0
  0
LINE
  8
0
 62
     9
 10
28.3132
 20
10.6798
 30
0.0
 11
28.3876
 21
11.0381
 31
0.0
  0
LINE
  8
0
 62
     9
 10
28.3876
 20
11.0381
 30
0.0
 11
28.3876
 21
11.1566
 31
0.0
  0
LINE
  8
0
 62
     9
 10
28.3876
 20
11.1566
 30
0.0
 11
28.3876
 21
11.3509
 31
0.0
  0
LINE
  8
0
 62
     9
 10
28.3876
 20
11.3509
 30
0.0
 11
28.1892
 21
11.887
 31
0.0
  0
LINE
  8
0
 62
     9
 10
28.1892
 20
11.887
 30
0.0
 11
28.1506
 21
11.9338
 31
0.0
  0
LINE
  8
0
 62
     9
 10
28.1506
 20
11.9338
 30
0.0
 11
28.101
 21
11.9751
 31
0.0
  0
LINE
  8
0
 62
     9
 10
28.101
 20
11.9751
 30
0.0
 11
27.6545
 21
12.2149
 31
0.0
  0
LINE
  8
0
 62
     9
 10
27.6545
 20
12.2149
 30
0.0
 11
27.5057
 21
12.2149
 31
0.0
  0
LINE
  8
0
 62
     9
 10
27.5057
 20
12.2149
 30
0.0
 11
27.4064
 21
12.2149
 31
0.0
  0
LINE
  8
0
 62
     9
 10
27.4064
 20
12.2149
 30
0.0
 11
27.1129
 21
12.1447
 31
0.0
  0
LINE
  8
0
 62
     9
 10
27.1129
 20
12.1447
 30
0.0
 11
26.8938
 21
11.9807
 31
0.0
  0
LINE
  8
0
 62
     9
 10
26.8938
 20
11.9807
 30
0.0
 11
26.8552
 21
11.9338
 31
0.0
  0
LINE
  8
0
 62
     9
 10
26.8552
 20
11.9338
 30
0.0
 11
26.7973
 21
11.8814
 31
0.0
  0
LINE
  8
0
 62
     9
 10
26.7973
 20
11.8814
 30
0.0
 11
26.6526
 21
11.5907
 31
0.0
  0
LINE
  8
0
 62
     9
 10
26.6526
 20
11.5907
 30
0.0
 11
26.6237
 21
11.2655
 31
0.0
  0
LINE
  8
0
 62
     9
 10
26.6237
 20
11.2655
 30
0.0
 11
26.6237
 21
11.1566
 31
0.0
  0
LINE
  8
0
 62
     231
 10
28.4482
 20
12.3362
 30
0.0
 11
28.4482
 21
14.2159
 31
0.0
  0
LINE
  8
0
 62
     231
 10
28.4482
 20
14.2159
 30
0.0
 11
29.0215
 21
14.2159
 31
0.0
  0
LINE
  8
0
 62
     231
 10
29.0215
 20
14.2159
 30
0.0
 11
29.0215
 21
9.39271
 31
0.0
  0
LINE
  8
0
 62
     231
 10
29.0215
 20
9.39271
 30
0.0
 11
28.4482
 21
9.39271
 31
0.0
  0
LINE
  8
0
 62
     231
 10
28.4482
 20
9.39271
 30
0.0
 11
28.4482
 21
9.91637
 31
0.0
  0
LINE
  8
0
 62
     231
 10
28.4482
 20
9.91637
 30
0.0
 11
28.4179
 21
9.86398
 31
0.0
  0
LINE
  8
0
 62
     231
 10
28.4179
 20
9.86398
 30
0.0
 11
28.0417
 21
9.47815
 31
0.0
  0
LINE
  8
0
 62
     231
 10
28.0417
 20
9.47815
 30
0.0
 11
27.9962
 21
9.45335
 31
0.0
  0
LINE
  8
0
 62
     231
 10
27.9962
 20
9.45335
 30
0.0
 11
27.9494
 21
9.42855
 31
0.0
  0
LINE
  8
0
 62
     231
 10
27.9494
 20
9.42855
 30
0.0
 11
27.4877
 21
9.30451
 31
0.0
  0
LINE
  8
0
 62
     231
 10
27.4877
 20
9.30451
 30
0.0
 11
27.3348
 21
9.30451
 31
0.0
  0
LINE
  8
0
 62
     231
 10
27.3348
 20
9.30451
 30
0.0
 11
27.1914
 21
9.30451
 31
0.0
  0
LINE
  8
0
 62
     231
 10
27.1914
 20
9.30451
 30
0.0
 11
26.7643
 21
9.42993
 31
0.0
  0
LINE
  8
0
 62
     231
 10
26.7643
 20
9.42993
 30
0.0
 11
26.3756
 21
9.72344
 31
0.0
  0
LINE
  8
0
 62
     231
 10
26.3756
 20
9.72344
 30
0.0
 11
26.3095
 21
9.80613
 31
0.0
  0
LINE
  8
0
 62
     231
 10
26.3095
 20
9.80613
 30
0.0
 11
26.2434
 21
9.8902
 31
0.0
  0
LINE
  8
0
 62
     231
 10
26.2434
 20
9.8902
 30
0.0
 11
26.0146
 21
10.3863
 31
0.0
  0
LINE
  8
0
 62
     231
 10
26.0146
 20
10.3863
 30
0.0
 11
25.9182
 21
10.9402
 31
0.0
  0
LINE
  8
0
 62
     231
 10
25.9182
 20
10.9402
 30
0.0
 11
25.9182
 21
11.1235
 31
0.0
  0
LINE
  8
0
 62
     231
 10
25.9182
 20
11.1235
 30
0.0
 11
25.9182
 21
11.3096
 31
0.0
  0
LINE
  8
0
 62
     231
 10
25.9182
 20
11.3096
 30
0.0
 11
26.0146
 21
11.8649
 31
0.0
  0
LINE
  8
0
 62
     231
 10
26.0146
 20
11.8649
 30
0.0
 11
26.2434
 21
12.3638
 31
0.0
  0
LINE
  8
0
 62
     231
 10
26.2434
 20
12.3638
 30
0.0
 11
26.3095
 21
12.4465
 31
0.0
  0
LINE
  8
0
 62
     231
 10
26.3095
 20
12.4465
 30
0.0
 11
26.3756
 21
12.5305
 31
0.0
  0
LINE
  8
0
 62
     231
 10
26.3756
 20
12.5305
 30
0.0
 11
26.7643
 21
12.8227
 31
0.0
  0
LINE
  8
0
 62
     231
 10
26.7643
 20
12.8227
 30
0.0
 11
27.1914
 21
12.948
 31
0.0
  0
LINE
  8
0
 62
     231
 10
27.1914
 20
12.948
 30
0.0
 11
27.3348
 21
12.948
 31
0.0
  0
LINE
  8
0
 62
     231
 10
27.3348
 20
12.948
 30
0.0
 11
27.5001
 21
12.948
 31
0.0
  0
LINE
  8
0
 62
     231
 10
27.5001
 20
12.948
 30
0.0
 11
27.9494
 21
12.824
 31
0.0
  0
LINE
  8
0
 62
     231
 10
27.9494
 20
12.824
 30
0.0
 11
27.9962
 21
12.7992
 31
0.0
  0
LINE
  8
0
 62
     231
 10
27.9962
 20
12.7992
 30
0.0
 11
28.0417
 21
12.7744
 31
0.0
  0
LINE
  8
0
 62
     231
 10
28.0417
 20
12.7744
 30
0.0
 11
28.4179
 21
12.3886
 31
0.0
  0
LINE
  8
0
 62
     231
 10
28.4179
 20
12.3886
 30
0.0
 11
28.4482
 21
12.3362
 31
0.0
  0
LINE
  8
0
 62
     231
 10
26.5024
 20
11.1235
 30
0.0
 11
26.5024
 21
10.8768
 31
0.0
  0
LINE
  8
0
 62
     231
 10
26.5024
 20
10.8768
 30
0.0
 11
26.7174
 21
10.1975
 31
0.0
  0
LINE
  8
0
 62
     231
 10
26.7174
 20
10.1975
 30
0.0
 11
26.7615
 21
10.1369
 31
0.0
  0
LINE
  8
0
 62
     231
 10
26.7615
 20
10.1369
 30
0.0
 11
26.8042
 21
10.0776
 31
0.0
  0
LINE
  8
0
 62
     231
 10
26.8042
 20
10.0776
 30
0.0
 11
27.3086
 21
9.77858
 31
0.0
  0
LINE
  8
0
 62
     231
 10
27.3086
 20
9.77858
 30
0.0
 11
27.4781
 21
9.77858
 31
0.0
  0
LINE
  8
0
 62
     231
 10
27.4781
 20
9.77858
 30
0.0
 11
27.6558
 21
9.77858
 31
0.0
  0
LINE
  8
0
 62
     231
 10
27.6558
 20
9.77858
 30
0.0
 11
28.1451
 21
10.0776
 31
0.0
  0
LINE
  8
0
 62
     231
 10
28.1451
 20
10.0776
 30
0.0
 11
28.1892
 21
10.1369
 31
0.0
  0
LINE
  8
0
 62
     231
 10
28.1892
 20
10.1369
 30
0.0
 11
28.2319
 21
10.1975
 31
0.0
  0
LINE
  8
0
 62
     231
 10
28.2319
 20
10.1975
 30
0.0
 11
28.4482
 21
10.892
 31
0.0
  0
LINE
  8
0
 62
     231
 10
28.4482
 20
10.892
 30
0.0
 11
28.4482
 21
11.1235
 31
0.0
  0
LINE
  8
0
 62
     231
 10
28.4482
 20
11.1235
 30
0.0
 11
28.4482
 21
11.3716
 31
0.0
  0
LINE
  8
0
 62
     231
 10
28.4482
 20
11.3716
 30
0.0
 11
28.2319
 21
12.0565
 31
0.0
  0
LINE
  8
0
 62
     231
 10
28.2319
 20
12.0565
 30
0.0
 11
28.1892
 21
12.1157
 31
0.0
  0
LINE
  8
0
 62
     231
 10
28.1892
 20
12.1157
 30
0.0
 11
28.1451
 21
12.1763
 31
0.0
  0
LINE
  8
0
 62
     231
 10
28.1451
 20
12.1763
 30
0.0
 11
27.6448
 21
12.474
 31
0.0
  0
LINE
  8
0
 62
     231
 10
27.6448
 20
12.474
 30
0.0
 11
27.4781
 21
12.474
 31
0.0
  0
LINE
  8
0
 62
     231
 10
27.4781
 20
12.474
 30
0.0
 11
27.2989
 21
12.474
 31
0.0
  0
LINE
  8
0
 62
     231
 10
27.2989
 20
12.474
 30
0.0
 11
26.8042
 21
12.1763
 31
0.0
  0
LINE
  8
0
 62
     231
 10
26.8042
 20
12.1763
 30
0.0
 11
26.7615
 21
12.1157
 31
0.0
  0
LINE
  8
0
 62
     231
 10
26.7615
 20
12.1157
 30
0.0
 11
26.7174
 21
12.0565
 31
0.0
  0
LINE
  8
0
 62
     231
 10
26.7174
 20
12.0565
 30
0.0
 11
26.5024
 21
11.3578
 31
0.0
  0
LINE
  8
0
 62
     231
 10
26.5024
 20
11.3578
 30
0.0
 11
26.5024
 21
11.1235
 31
0.0
  0
LINE
  8
0
 62
     9
 10
30.3017
 20
12.9205
 30
0.0
 11
31.0072
 21
12.9205
 31
0.0
  0
LINE
  8
0
 62
     9
 10
31.0072
 20
12.9205
 30
0.0
 11
31.0072
 21
9.39271
 31
0.0
  0
LINE
  8
0
 62
     9
 10
31.0072
 20
9.39271
 30
0.0
 11
30.3017
 21
9.39271
 31
0.0
  0
LINE
  8
0
 62
     9
 10
30.3017
 20
9.39271
 30
0.0
 11
30.3017
 21
12.9205
 31
0.0
  0
LINE
  8
0
 62
     9
 10
30.3017
 20
14.3316
 30
0.0
 11
31.0072
 21
14.3316
 31
0.0
  0
LINE
  8
0
 62
     9
 10
31.0072
 20
14.3316
 30
0.0
 11
31.0072
 21
13.626
 31
0.0
  0
LINE
  8
0
 62
     9
 10
31.0072
 20
13.626
 30
0.0
 11
30.3017
 21
13.626
 31
0.0
  0
LINE
  8
0
 62
     9
 10
30.3017
 20
13.626
 30
0.0
 11
30.3017
 21
14.3316
 31
0.0
  0
LINE
  8
0
 62
     231
 10
30.197
 20
12.8654
 30
0.0
 11
30.7647
 21
12.8654
 31
0.0
  0
LINE
  8
0
 62
     231
 10
30.7647
 20
12.8654
 30
0.0
 11
30.7647
 21
9.39271
 31
0.0
  0
LINE
  8
0
 62
     231
 10
30.7647
 20
9.39271
 30
0.0
 11
30.197
 21
9.39271
 31
0.0
  0
LINE
  8
0
 62
     231
 10
30.197
 20
9.39271
 30
0.0
 11
30.197
 21
12.8654
 31
0.0
  0
LINE
  8
0
 62
     231
 10
30.197
 20
14.2159
 30
0.0
 11
30.7647
 21
14.2159
 31
0.0
  0
LINE
  8
0
 62
     231
 10
30.7647
 20
14.2159
 30
0.0
 11
30.7647
 21
13.4938
 31
0.0
  0
LINE
  8
0
 62
     231
 10
30.7647
 20
13.4938
 30
0.0
 11
30.197
 21
13.4938
 31
0.0
  0
LINE
  8
0
 62
     231
 10
30.197
 20
13.4938
 30
0.0
 11
30.197
 21
14.2159
 31
0.0
  0
ENDSEC
  0
EOF
